<?xml version="1.0" encoding="utf-8"?>
<!-- Generator: Adobe Illustrator 22.1.0, SVG Export Plug-In . SVG Version: 6.00 Build 0)  -->
<svg version="1.1" id="Layer_1" xmlns="http://www.w3.org/2000/svg" xmlns:xlink="http://www.w3.org/1999/xlink" x="0px" y="0px"
	 viewBox="0 0 859.8 829.8" style="enable-background:new 0 0 859.8 829.8;" xml:space="preserve">
<style type="text/css">
	.st0{fill:#070707;}
	.st1{fill:#1C1C1C;}
	.st2{fill:#1C1B17;}
	.st3{fill:#4A4949;}
	.st4{fill:#616161;}
	.st5{fill:#848484;}
	.st6{fill:#F9BB3D;}
	.st7{fill:#C6C6C6;}
	.st8{fill:#6ABFF0;}
	.st9{fill:#EC7185;}
</style>
<g id="Layer_2_1_">
	<g id="Layer_1-2">
		<path class="st0" d="M299.8,151c5.1,0.6,9.7-1.7,14.2-3.4c5.9-2.2,7.4,0,7.8,5.4c0.5,8.2,1.4,16.3,2.1,24.5c2.7,1.3,3.6-1.1,5-2.2
			c6-4.8,12.1-9.6,17.7-14.9c12.3-11.3,26.5-18.3,43.3-19.6c6.9-0.6,13.1-2.4,18.2-7.5c2.6-2.7,6.5-3.1,10.1-4.4
			c-1.8-2.8-3.9-1.7-5.6-1.7c-10.6,0-15.5-3.9-17.1-14.4c-1.1-7-0.1-13.9,0.1-20.9c0.1-2.3,0.7-4.2-3.2-5.2
			c-11.9-3-17.7-17.3-12.3-28.9c0.5-1,2.6-2.3,1.7-2.9c-9.9-7.3-0.2-15.8-1.4-23.7s6.1-11.8,13.6-8.8c2,0.8,3.4,2,5.8-0.2
			c4.3-4.1,9.7-4,14.5-1.1c7.2,4.3,14.8,5,23,4c15.4-1.9,21.2,1.8,26.6,16.8c1,2.8,3.2,2.9,5,3.8c8,4.2,13.8,14.4,13,23.3
			c-0.2,2.3-0.8,4.5-2.6,6c-8.7,7.2-13.8,17.5-21.6,25.4c-5.9,6-3.8,13.5-3.7,20.5c0,2.6,2.3,2.7,4.3,3.2c5.8,1.3,10.9,3.9,13.7,9.3
			c1.6,3,4.2,3.3,6.8,3.6c22.8,2.5,37.4,15.8,46.7,35.8c12.9,27.9,25.8,55.9,38.6,83.9c1.9,4.1,2.9,5.4,7,2
			c18.5-14.7,37.3-29.1,55.9-43.7c2.9-2.4,5.5-5,7.9-7.8c2.1-2.3,4.2-4.1,7.5-4.3c8.7-0.6,14.5-5.1,17-13.5c1.5-5,2.2-10.2,3.7-15.2
			c2.9-9.6,6.7-10.5,13.9-3.3c5.4-5,8.2-11.8,12.2-17.8c2.8-4.2,5.8-8.1,10.2-10.7c2.2-1.3,4.8-1.8,7.1-0.3s0.1,3.8,0.3,5.9
			c4.4-0.9,8.6-6.2,12.4-2.1c3.1,3.3-2.4,5.7-3.6,8.6l-1.7,2c0.9,0.7,2.3,0.6,3-0.3c0-0.1,0.1-0.1,0.1-0.2c1.7-0.5,3.3-1,5-1.4
			c2.1-0.4,4.1-0.1,5,2.1c0.8,1.9-0.4,3.4-1.8,4.5c-2.2,1.8-4.5,3.5-6.9,5.4c0.6,0.4,1,0.8,1.3,0.8c3.6-0.1,8.5-2.1,10.1,2.2
			c1.8,4.7-3.7,5.8-6.6,7.6c-6.9,4.4-12.2,9.7-15.9,17.2c-4.1,8.3-10.9,15.1-19.3,19.1c-6.7,3.4-12.5,8.3-17,14.3
			c-4.1,5.3-3,8.8,3.5,10.6c8.6,2.3,17.1,5.4,25.2,9.2c6.3,3,12.4,6.4,17.5,11.3c1.8,1.7,5.9,4,3.9,6.2c-2.6,2.9-4.2-1.7-6-3.2
			c-12.3-10.2-27.1-17-42.8-19.8c-6.7-1.2-11.2,4.7-14.1,10.7c-8.6,17.7-18.3,34.7-31.1,49.9c-11.2,13.4-24.4,24.9-39.1,34.4
			c-24.6,15.7-44.8,12.8-64.2-9c-6.6-7.5-12.1-15.8-17.6-24.1c-1.2-1.8-1.8-4-5.1-5.5c2.3,19.1,7.4,37.3,3.4,56
			c-3.9,18.5-10.9,35.5-19.9,51.9l-2.6-1.3c6.1-14.1,13.4-27.7,17-42.8c3.8-16.3,4.9-32.5-0.4-49.9c-5.7,6.9-13.1,7.7-20,9.1
			c-19.6,3.8-39.1,2.2-58.4-1.8c-4.5-0.9-6.6,0.1-8.3,4.4c-4.9,11.9-10.1,23.7-15.4,35.5c-0.6,1.3-2.2,2.6-0.3,3.6s2.5-1.1,3.1-2.3
			c2.5-5.1,4.8-10.3,7.4-15.4c2.3-4.4,3.3-9.7,8.3-12.6c-8.5,21.4-18.5,42.2-30,62.1l-2.2-2.1c2.4-6.5,8.4-11.8,8.4-18.8
			c0-9.8,3-18.5,6.9-27.1c3.7-8.2,7.3-16.3,10.9-24.5c0.6-1.4,2.3-2.8,0.2-4.5c-3.7-3-16.6-2.9-20.2,0.4c-4.2,3.9-9.5,5.1-14.9,6.2
			c-50.8,10.3-101.7,20.4-152.4,31.2c-25.7,5.5-42.1,21.1-46.1,47.9l-2.9-0.2c1.1-23.6,18.8-44.5,45.5-50.7
			c35.6-8.2,71.4-15.1,107.2-22.4c16.8-3.5,33.6-6.8,50.4-10.1c3.4-0.6,6.7-1.9,9.5-3.9c3.2-2.4,5.4-4.7,2.3-9
			c-2.3-3.2-2.3-7.5-0.1-10.7c3.3-4.4,2.3-8.8,1.4-13.4c-2.9-14.4-5-28.8-6.8-44.6c-6.1,4.8-11.3,9.2-16.8,13
			c-9.4,6.6-18.8,13-28.5,19.1c-3.4,2.1-4.5,4.4-4.4,8.4c0.8,30.8,0.2,31.6-28.3,43.6c-55.4,23.3-111.4,22-167.7,3.9
			c-17.1-5.3-33.6-12.4-49.2-21.1c-0.9-1.4-2.6-2.3-4.3-2.2c-7.4-3.8-14.7-7.8-21.1-13.3c0.2-1,0.5-2,0.7-3
			c42.7,28.1,89.2,45.5,140.4,49c40.8,2.8,79.5-5,115.9-24.3c8.5-4.5,10.3-11.2,10.4-19.6c0.1-16,0.1-16.1-13.8-8.2
			c-13.6,7.7-27.7,13.6-43.9,10.7c-2.2-0.4-4.3-1.1-6.4-1.7v-3c12.7,3.3,25.2,2.5,37.1-3.2c7.1-3.5,13.9-7.8,21-11.3
			c4.2-2.1,5.3-5.1,4.8-9.6c-2.4-24.3-4.5-48.6-6.7-72.8c-0.1-1.5,0.3-3.5-2.1-4.6c-12.1,10.1-24.3,20.3-36.5,30.5
			c-3.2,2.7-6.8,7.7-9.8,7.4c-4.6-0.4-3.3-7.1-5.3-10.8c-7.8-14.4-15.3-29-22.4-43.8c-2.1-4.4-4.4-5.6-9-5
			c-10.4,1.3-20.9,1.3-31.3,0.2c-7.2-0.9-7.5,1.8-7.1,7.5c2.2,30.4,12.1,59.7,28.9,85.2l-2,2.1c-18.5-25.4-27.4-54.2-30-85.2
			c-1-12.6,0-10.2-11.2-11.8c-11.8-1.7-23.5-3.8-34.8-7.7c0.1-0.9,0.2-1.8,0.3-2.7c14,2.9,27.7,7.2,44.6,7.7
			c-11.4-7.8-8.1-13.9-0.6-19.6c2.1-1.6,1.1-3.4,0.6-5.3c-1.1-4.7-4.6-8.1-6.4-12.4l1.9-1.9c3.5,3.6,6,7.9,7.4,12.6
			c0.9,2.8,1.8,4.1,5,2.4c6.3-3.4,13.3-5.1,21.2-6.4c-5.5-7.5-4.2-15.3-3-23.2c1.1-7.9,1.2-15.8,0.3-23.7c0.6-0.7,1.2-1.3,1.8-2
			c5,9.6,1.9,19.5,0.9,29.2c-1.5,13.5-0.6,16.2,10.7,22.4c3.1,1.7,5,3.9,5,7.6c-0.2,2-0.1,4,0.3,5.9c3.4,14.2,5.8,15.9,20.2,13.3
			c12.7-2.2,25.5-3.6,37.7-8.3c1.2-0.1,2.8,0.7,3.1-1.4L299.8,151z M711.8,150.4c-3.1,1.1-5.7,3.3-7.4,6.1c-3.7,2.3-5.6,6.2-8.3,9.4
			c-0.9,1.1-1.9,1.8-3.2,1c-1.5-0.9-0.5-2.3,0-3.2c3.2-5.6,6.5-11.1,9.7-16.7c0.1-0.6,0.2-1.1,0.3-1.7l-1.4,0.7
			c-1.3,0.6-2.5,1.4-3.7,2.4c-7.7,7.9-11.3,18.8-19,26.6c-2,2,0.5,2.9,1.5,4.1c3.3,3.9,5.4,8.3,5.3,13.6c0,1.4,0.3,3.3-1.9,3.2
			c-1.6-0.1-1.5-1.7-1.6-2.9c-0.7-5.9-2.2-11.3-8.3-13.8c-2.5-1-1.7-2.4-1-4.1c0.9-2.2,0.3-4.3-1.9-4.8c-2.7-0.7-3,2-3.6,3.8
			c-0.3,0.9-0.6,1.9-0.8,2.9c-2.6,10.3-3.5,21.4-14.1,27.6c-2.6,1.5-0.7,2.8,0.6,4c5.6,5.1,9.8,11.2,13.9,18.6
			c5.6-7.2,11.8-13.2,19.8-17c8-3.7,14.4-10.1,18.1-18.1c3.5-7.7,8.8-13,15.7-17.3c0.9-0.5,2.4-1,1.4-3.1c-3.8,0.1-6.7,2.7-9.9,4.4
			c-1.7,0.9-3.5,3.2-5.2,1.8c-2.4-2,0.7-3.9,1.1-5.9l11-10.5l-1.3-1.3c-4,3-8.5,5.6-11.4,10.1c-1.9,0.8-3,4.4-5.2,2.8
			c-2.4-1.7-0.5-4.4,0.6-6.4c1.5-2.7,3.3-5.3,5-7.9c2.2-2.3,4.4-4.7,6.6-7c0.5-0.6,1.9-1.1,1-2.1
			C713.3,148.8,712.3,149.4,711.8,150.4L711.8,150.4z M500,261.4c0.6-4.6,0.5-9.2-0.2-13.7l-0.3-53.2c0.3-1.2-0.3-1.8-1.4-1.8
			c-0.4,0-0.6,1-1,1.5c0,17.9,0,35.8,0,53.6c-0.8,4.6-0.5,9.4,0.7,14v30.7l2.1-0.1L500,261.4z M418.3,271.4c-0.4,0.2-0.9,1-0.9-0.3
			l1.1,0.4c0,2.8,2,2.9,4.1,3.1c18.1,1.7,36.2,2.4,54.2-1c2-0.4,4.9,0.9,6.6-3.4C461.8,273.8,439.9,274.2,418.3,271.4L418.3,271.4z
			 M274,221.4c15.3-12.9,29.7-25,44.2-37.1c1.8-1.3,2.8-3.5,2.4-5.8c-0.9-7.6-2-15.3-2.5-23c-0.3-4.6-1.4-5-5.7-3.7
			c-19.2,5.9-38.8,10.7-58.9,12.5c-6.2,0.6-6.9,2.3-4.3,7.5C257.4,188.1,267.4,203.3,274,221.4z M428.9,123.8
			c-1.2,2.6-2.9,2.3-4.2,2.8c-4.8,1.8-1.6,5.9-2.3,8.9c-0.4,1.8,0,3.5,2.5,3.6c9.6,0.3,17.7-3.3,23.6-10.6
			c5.1-6.3,3.3-15.1,0.6-20.4c-3.3-6.5-2.9-12.7-3.9-19.1c-0.6-3.4,0.5-5.4,4.3-6.4c4.3-1.1,5.6-4.7,4.7-8.8
			c-0.9-3.9-3.6-5.9-7.6-5.6c-4.4,0.3-6.6,3.1-7,7.3c-0.4,3.4-0.5,6.9-0.7,10.1c-3.3,1.1-4-4.4-6.6-2.4c-8.5,6.6-16.7,3.4-25.4,0.6
			c-4.3-1.4-8.7,2.9-8.4,5.2c1.1,8-1.2,15.9,0.6,23.7c2,8.6,5,10.8,14.1,11C418.1,123.8,423.2,121.6,428.9,123.8z M403.2,56.3
			c-6-0.1-11.4,0.1-16.7,1.7c-2,0.6-4,1.1-4.1,3.5c-0.4,5.2-0.8,10.4,1.9,15.2c2.1,3.8,5.4,5.8,9.2,3.3c5.7-3.9,10.4-2.6,15.6,1
			c3.6,2.5,8,3.7,10.9-1.4c3.5-6.3,2.8-13.3,0.6-19.5c-1.5-4.4-7.2-2.7-11.1-3.4C407.1,56.4,404.9,56.4,403.2,56.3z M428.9,261.9
			c-6-7.6-11.3-14.4-16.7-21.1c-1.2-1.4-2.2-4.8-4.9-1.8c-5.2,5.7-10.2,11.6-12.3,19.3c4-4.2,7.6-8.8,10.8-13.6
			c2.5-3.6,4-3.1,6.4,0.2c5.3,7.1,11,13.9,17.2,21.8c4.4-8.7,8.4-16.3,12.2-24.1c2-4.2,3.5-4.9,6.1-0.3c3.6,6.8,7.7,13.3,11.6,19.9
			c1,1.7,2.3,4.1,4.3,1.4s5.1-4.9,5-9.2c-3.7,1-3.8,5-7,6.2c-3.6-6.1-7.1-12.4-10.9-18.5c-1.6-2.6-2.4-6.9-6.3-6.5
			c-3.6,0.4-4.4,4.3-5.9,7.1C435.4,248.9,432.4,254.9,428.9,261.9z M389.9,230.1c30,4.6,60,5.8,90.1,1.9
			C450,231.2,419.9,233.1,389.9,230.1L389.9,230.1z M450.7,64.5c4.2,3.1,6.6,5.9,7.2,9.6c0.4,2.1,1.7,2.2,3.3,1.9
			c4.6-0.9,9.3-1.8,13.8-2.8c3.2-0.7,3.2-3.4,3.1-5.9c-0.1-2.9-2.2-2.8-4.3-2.7C466.7,64.5,459.6,64.5,450.7,64.5z M421.7,83.5
			c1.6,0.2,2.2,0.4,2.6,0.2c7.4-2.6,11.7-19.8,6-24.9c-1.6-1.2-3.6-1.6-5.6-1.2c-1.4,0.3-0.9,2.6-0.6,4
			C426.1,68.9,425.3,76.7,421.7,83.5L421.7,83.5z M490.2,259.4c-1.3-7.8-6.1-13.1-11.6-17.9c-1.1-0.9-2.3-1-3.1,0.3
			c-2.6,4-5,8-7.5,12c4.1-0.3,5.1-3.2,6.4-5.6c2.1-4.1,4.1-4.3,6.8-0.7C484.1,251.5,487.1,255.4,490.2,259.4L490.2,259.4z
			 M380.6,189c0.3,10.6-1.3,21.3,2.2,31.6C383,210,383.7,199.4,380.6,189z"/>
		<path class="st1" d="M734,434.8c1.3,12.4,1.4,12.9,14.1,10.1c23.2-5.1,44.2-15.5,63.7-28.8c8-5.4,15.7-11.3,23.8-16.7
			c11-7.3,15.9-17.6,17.1-30.6c3.4-35.7,3-71.5,3-107.2c0-19.6-0.5-39.2-0.8-58.9c0.6-2.2-0.9-2.5-2.5-2.6c3.6-5.3,2.4-11.2,2.4-17
			c0-11.1,0-22.1-0.6-33.1c-27.6,45.8-69.1,71.8-118.4,87.2c-2.8,0.9-4.1,1.9-4,5c0.3,8.9,0.3,17.9,0.5,26.8l0.6,1.3
			c-1.4,2.8-1,5.8-1,8.8c0,28.9,0,57.7,0.1,86.6c0,1.7,0,3.5,0,5.2c0,1.3-0.2,2.6-2,2.4c-1.2-0.1-1.6-1-1.7-2.1
			c-0.1-1.5-0.1-3-0.1-4.5c0-41.3,0.1-82.6-0.3-124c-0.1-6.4,2.3-8.3,7.9-10c41.1-12.1,76.2-33.8,103.1-67.6
			c7.4-9.3,12.6-19.6,14.2-31.6c2.9-21.9-6.8-38-23.3-50.9c-18.1-14.2-39.1-22.4-60.7-29.4C715.3,36.1,660.5,34.6,605,40.3
			c-2.1,0.2-5-0.3-4.3,3.3c1.7,9.2,1.1,18.8,3.9,27.8c0,0.6,0,1.1,0,1.6c0.2,19.9,0.3,39.7,0.7,59.6c0.6,25.1-0.1,50.3,1.6,75.4
			c0.3,4.4,0.7,7.9,6.5,7.2c1.5-0.2,3.2,0.6,3,2.5c-0.2,2-2.1,1.6-3.6,1.6c-6.2,0.1-9.5-1.4-9.9-9.1c-2.5-43.5-0.1-87.2-2.8-130.6
			c-0.8-12.4-2.1-24.8-3.4-37.2c-0.4-3.8,0.5-5.4,4.5-5.8c71.9-7.6,142.2-3.4,208.5,29c18.3,9,34.7,20.5,43.7,40
			c2.9,6.1,4.4,12.7,4.5,19.4c0.7,73.9,3.9,147.8,0.5,221.7c-0.4,8.4-1.6,16.8-2.2,25.3c-0.9,12.6-6.9,22-17,29.3
			c-12.7,9.2-25.2,18.8-38.7,26.6c-4.3,2.5-5.8,5.1-5.7,10c0.3,28.6,0.1,57.3,0.3,85.9c0,5.2-1.3,8.6-5.8,11.7
			c-56.1,39.7-118.6,62.1-186.6,69.5c-27.5,2.9-55.1,3.6-82.7,2.2c-7.3-0.3-7.6-3.8-7.9-9.3c-2.7-54-4-108-3.4-162l1.6-0.1l1.5,0.2
			c1.2,2.6,0.3,5.3,0.6,7.9c0.2,2.2-1.2,5.1,2.5,5.8c-0.1,0.3-0.1,0.7,0,1c-2.8,0.3-2.6,2.4-2.6,4.4c0,8,0,15.9,0,23.9
			c0,39.3,1.7,78.6,3.6,117.8c0.2,4.8,1.6,6.4,6.8,6.7c36,2.2,72.1,0.1,107.7-6.2c56.6-10,108.8-30.9,155.8-64.2
			c3.1-2.2,5.3-4.2,5.3-8.8c-0.3-28.4-0.3-56.7,0-85.1c0.1-6.2-1.9-5.7-6.3-3.6c-11.5,5.4-23.1,10.4-35.6,12.9
			c-16.8,3.4-18.1,2.5-19.3-13.9l0.5,0.2C731.8,434.9,732.9,434.9,734,434.8z"/>
		<path class="st2" d="M467.2,436.3c-14.8,25.3-29.5,50.7-44.5,75.8c-2.8,4.7-2.4,6.7,2.4,9.5c13.9,8.3,27.2,17.4,41,25.9
			c3.7,2.3,4.6,4.1,2.1,8.1c-16.3,26.2-32.3,52.5-48.4,78.8c-0.5,0.8-1,1.7-1.6,2.5c-2.8,3.8-5.5,10.2-9.6,9.3
			c-5.2-1-5.6-8.1-6.7-13.1c-1.9-8.6,0.8-16.7,3.1-24.9c4.2-14.8,1.3-27.9-9-39.5c-5.7,18.3-11.2,36.2-16.8,54
			c-20.7,66.9-41.4,133.8-62,200.7c-1.8,5.8-3.8,7.2-9.8,5.4c-30.7-9.3-61.5-18-92.3-27.1c-3.7-1.1-8.6-1.4-9.3-6.2
			c-0.8-5.5,4.1-7.5,7.9-9.7c8-4.6,16.8-5.8,25.8-6.5c8.2-0.5,16.4-1.1,24.3-3.6c8.6-2.7,14.4-8.4,18.4-16.3c2-4,1.1-5.5-2.9-6.7
			c-9.6-2.8-18.5-7.1-26.2-13.8c-4.5-4-5.7-8-4.3-14.4c12.6-56.3,29.4-111.5,50.5-165.2c1.9-4.8-0.5-6.1-3.5-8.1
			c-20-13-40.3-25.6-59.1-40.5c-6-4.8-11.7-10-17.5-15c0.1-1.2,0.2-2.5,0.3-3.7c25.8,22.1,54,40.8,83.1,58.9
			c8.9-21.3,18.3-41.6,28.4-61.5c0.6-1.2,1.8-2.6-0.1-3.9v-0.2c4.8-0.4,4-5.3,6.2-7.7c4.5-5.2,2.1-7.8-3-11
			c-16.5-10-32.7-20.6-49-30.9l-1.6-1.8c2.8-3.8,5-0.2,6.9,1c15.6,9.6,31.3,19.3,46.6,29.4c4.6,3.1,6.3,2.1,8.5-2.5
			c4.8-9.5,10.2-18.7,15.4-28l2.3,2.2c-2.2,4.2-4.2,8.4-6.6,12.5c-36.5,64.8-65.2,133.6-85.6,205.1c-7,24.5-13.5,49.2-18.7,74.3
			c33.9,2.6,44.7,6.2,81.6,26.4c2.1-2.1,2.2-5,3-7.5c18.6-60,37.1-120,55.7-180c2.9-9.2,4.6-18.9,9.6-27.3
			c8.3-14.1,16.7-28.3,25.1-42.3c12.6-21.1,25.2-42.2,37.9-63.2L467.2,436.3z M410.8,597.6l-5.4,23.2c-1.7,7.3-0.3,14.1,3.5,21.1
			c1.4-1.3,2.5-2,3.1-3c17.4-28.1,34.9-56.1,52.3-84.2c1.6-2.5,0.3-3.5-1.5-4.6c-14-9-28-17.9-42-26.9c-1.7-1.1-3.2-2.4-4.8,0.4
			c-6.7,11.8-14.9,23-17.6,36.7c-0.5,2.6-0.9,4.7,2.1,6.3c4.4,2.4,3.2,9.6,9,10.9c-3.1,6.5,2.4,12.3,1.4,18.5
			C410.8,596.5,410.8,597,410.8,597.6z M293.9,739.6c-3.2-0.5-2.8,1.8-3.2,3.3c-1,4.1-1.6,8.4-3,12.3c-2.4,6.4-4.1,12.8-10.3,17.6
			c-9.2,7.1-19.6,9.1-30.5,9.9c-11.4,0.9-22.9,1.2-33,7.5c-1.8,1.2-4.4,2.2-3.9,4.9c0.4,2.3,2.9,2.4,4.8,2.9c31,9,62,18,93,27.1
			c3.5,1,4.6,0.5,5.7-3.1c5.9-19.5,11.9-39,18.2-58.3c1.4-4.2-0.3-5.9-3.2-7.8c-10-6.7-21-11.3-32.1-15.5
			C295.4,740.1,294.5,739.8,293.9,739.6z"/>
		<path class="st1" d="M96,383.8c0.7,3.5-2,3-3.6,2.6c-27.1-6-53.7-13-74.9-32.5c-3.4-3.1-6.1-7-9.8-10.4c1.2,8.8-6.2,17.5,0.9,26.5
			c2,2.5-3.8-1-3.7,2.5c0.2,3.2-0.5,6.4-0.6,9.7c-1.4,49,0.8,98,4.4,146.9c0.6,7.7,3.4,12.7,9.8,16.9c24.1,15.8,51.2,23.8,78.8,30.5
			c8,1.9,16,3.8,24,5.4c11.3,2.3,17-1.5,17.2-13.1c0.4-24.9-0.3-49.7-0.4-74.6c-0.1-23.9,0-47.8-0.1-71.6l3.1,3.2
			c0.3,26.4,0.5,52.7,0.8,79.1c0.2,17.9,0.6,35.8,0.9,53.7c0.1,5,0.3,9.9-0.9,14.8c-2.4,9.9-7.8,14.5-17.7,12.7
			C88,579.2,52,570.7,19.6,551.3c-9.2-5.5-14.1-12-14.9-23.6c-4-58.6-7.2-117.2-2.2-175.9c0.8-9.6,1.8-19.3,3.1-28.9
			c2.2-16.3,16.3-28.7,36.8-33.5c5-1.2,10.4,0,15-2.7c1.8,0.3,3.6,2.4,5.5,0.1l0,0c-0.2,1-0.5,2-0.7,3c-2.6,1.5-5.5,2.2-8.4,2.2
			c-10.5,0.2-20.7,3.4-29.5,9.3C12.9,308.6,6.8,322.6,9.9,334c2.8,10.6,9.7,18,18.4,24c19,13,40.6,19.4,62.8,24.3
			C92.7,382.7,94.3,383.3,96,383.8z"/>
		<path class="st0" d="M62.9,286.8c-1.9,2.2-3.6,0.1-5.5-0.1c-13.1-8.3-18.8-20.1-21.2-35.5c-7.2-45.1-8.9-90.5-8.7-136.1
			c0.1-9.2,0.9-18.4,2.4-27.5c3.6-23.7,18.4-39.5,37.2-52.5C93.3,17,122.7,7.7,153.8,3.7c38.9-5,77.9-5.4,116.6,2.2
			c8.5,1.7,16.8,4.5,25.1,7c5.9,1.8,8,5,7,11c-0.8,4.9-1,9.9-1.5,14.8c-0.4,0.9-0.9,1.7-1.3,2.6h-2.8c0.2-0.4,0.1-0.9-0.2-1.3
			c0.3-2.2,0.7-4.4,0.9-6.6c1.8-16,1.7-15.9-13.5-20.4C253.7,4,222.4,3,191,4.1c-28.9,0.9-57.4,4.6-84.8,14.7
			C88.5,25.5,72,35,57.4,47C42.3,59.1,34.8,75,32.6,93.8c-3.5,29.1-0.9,58.2-0.1,87.3c0.6,24.1,5,47.9,7.5,71.9
			C41.7,269.1,51.6,278.1,62.9,286.8z"/>
		<path class="st1" d="M222.1,82.1c-0.6,0.7-1.2,1.3-1.8,2c-4.8-6.1-10-3.1-15.2-0.8c-2.7,1.2-6.5,2.1-6.3,5.4
			c0.2,3.9,4.9,0.5,7,3.1c-3.1,4-2.1,10.1-6.8,14.1c0.4-6,2-12-3.9-16.2c-0.5-0.3,0-1.9,0-2.9c0-0.6,0.1-1.2,0.1-1.8
			c2.9-1.7,5.7-3.8,8.9-5.1s3.6-2.5,1.6-5.3c-4.6-6.4-8.9-13-13.4-19.5c-0.9-1.4-2.1-3.5-4-2.3c-1.6,1-1,3.2-0.3,4.8
			c1.4,3.1,3,6.2,4.7,9.2c2.4,4,0.9,5.9-3.2,6.7c-1.4-0.4-2.2,0.6-3,1.4c-2.9,1.4-6.3,1.7-8.3,4.7l0.2-0.2c-4.1,1.3-5,3.7-2,7
			c2.2,2.5,4,5,4,8.5c-0.1,10.2,3.2,19.3,8.9,27.6l-1.9,1.9c-7.3-7.3-9.8-16.5-10.3-26.3c-0.2-3.6-0.9-6.8-3.4-9.5
			c-4.6-4.9-2.9-8.9,2-12.4c0.8-0.6,1.7-1,2.5-1.6c3.4-2.4,9.6-1.8,10.6-5.6c0.8-3-2.8-7.1-4.2-10.8c-1.3-3.5-1.4-7.2,2.5-9
			c3.7-1.8,6.1,0.9,8,3.7c2.7,3.9,5.2,7.9,8,11.7c4,5.6,6.3,13,15.1,13.4C220,78,221.8,79.8,222.1,82.1z"/>
		<path class="st1" d="M149.3,153.9c-0.1,0.9-0.2,1.8-0.3,2.7c-31.3-8.4-59.1-23.1-82.2-46.1c-8.2-8.1-14.9-17.4-17.3-29.1
			c-1-4.1-0.9-8.4,0.3-12.5c0.3-1.2,0.7-2.6,2.3-2.2s1.3,1.9,1.1,3c-2.6,14.9,4.8,25.9,14.1,36c19.2,20.7,43.2,34,69.5,43.5
			C140.9,150.8,145.1,152.4,149.3,153.9z"/>
		<path class="st3" d="M643.4,71.8c14.4,0.3,28.7,2.1,42.9,3c16.3,1,32.5,2.9,48.6,5.7c26.7,4.7,53,11.1,76.8,25.1
			c5,2.8,9.6,6.2,13.9,10l-1.7,1.2c-25.1-19.2-54.6-27.2-84.9-33c-15.1-2.9-30.4-4.3-45.6-6.6c-16.6-2.5-33.4-0.8-49.8-3.9
			L643.4,71.8z"/>
		<path class="st1" d="M300.5,68.7c-2.2,0.3-1.8,2.1-1.8,3.4c-0.9,26.3-1.3,52.6,1.1,78.9l0.1-0.1c-1-1.7-2.1,0-3.1-0.1
			c-2.8-10.7-2.1-21.6-2.4-32.4c-0.3-14.2,0.2-28.3,0.3-42.5c0-2.1,1.7-5.2-2.3-5.9c0-0.5,0-1,0-1.5l7.6-0.6
			C300.1,68.1,300.3,68.4,300.5,68.7z"/>
		<path class="st1" d="M219.4,492.4c-0.1,1.2-0.2,2.5-0.3,3.7c-19.8-17-36.5-36.1-43.7-61.9c-0.7-2.6-1-5.3-1.5-8l3.4-0.5
			c2.8,16.3,10.4,30.3,20.2,43.3C204,477.6,212.3,484.4,219.4,492.4z"/>
		<path class="st3" d="M752.3,373.4c1.8-1.6,4-2.8,6.3-3.5c6.1-2,12.1-4.5,18-6.9c11.3-4.6,18.4-11.3,16.3-25.2
			c-1.5-10-1.2-20.3-1.4-30.5c-0.1-2.2-1.8-5.1,2.4-6.6c0.9,16.9,1.6,33.6,0.9,50.3c-0.1,2.3-1.2,4.4-3.1,5.7
			c-12.1,7.8-24.5,15-39.2,16.5L752.3,373.4z"/>
		<path class="st1" d="M83.3,303.1c1.7-0.1,3.3,0.7,4.3,2.2c-2.9,3.8-1.3,8.1-1.3,12.1c-0.1,12.9,0.3,25.8,0.5,38.6
			c0,1.5,0.6,3.8-2,3.9c-1.6,0-1.7-1.6-1.7-2.8c-0.6-16.8-1.5-33.6-0.8-50.5C82.4,305.4,82.8,304.2,83.3,303.1z"/>
		<path class="st4" d="M116,250.8c5.8-1,7.9,1.3,7.7,7.4c-0.3,10.2-0.6,20.4-1.4,30.5c-0.4,5.4-2.8,8-8.2,6.5
			c-12.8-3.7-25-9.2-36.2-16.4c2.8-1.6,4.1,0.3,5.7,0.9c1.6,0.7,3.2,1.5,4.7,2.4c7.4,4,15.2,7.3,23.2,10c5.9,2,9,0.7,9-6.1
			c0-8.5,0.1-16.9,0.6-25.4C121.3,256,120.4,252.6,116,250.8L116,250.8z"/>
		<path class="st2" d="M265.5,289.6v3c-17.9-4.7-30.5-16.2-40.6-31.2l2-2.1C237.2,272.7,249.3,283.7,265.5,289.6z"/>
		<path class="st1" d="M728.8,394.2c-0.2-2.9-0.4-5.8-0.6-9.2c-10.6,3.7-20.2,8.8-30.8,11.1c-2,0.4-5.3,3.6-5.5-1.9
			c11-3.1,21.7-7.1,32-11.9c7.7-3.4,7.7-3.4,8.2,5.3c0.2,2.7,0,5.4,0,8.1L728.8,394.2z"/>
		<path class="st4" d="M256.1,94.3c22.9-0.6,16.6-3.4,19.8,17.5c1.5,9.9,0.9,10-9.2,10.8l-14.7,1.3c-0.2-0.6-0.4-1.2-0.5-1.9
			c5.4-0.5,10.7-1.2,16.1-1.5c5.1-0.3,7.9-1.9,6.2-7.6c-0.5-1.9-0.8-3.9-0.9-5.8C272,96.8,272,96.6,261.7,97
			c-2.2,0.1-3.6-0.9-5.2-1.9C256.3,94.9,256.2,94.6,256.1,94.3z"/>
		<path class="st4" d="M66.1,188.3c20.3,8.4,40.7,17,63.7,23.6C120.3,213.1,80.8,198.3,66.1,188.3z"/>
		<path class="st1" d="M728.8,394.2l3.3,1.6c1.6,13,1.7,26,1.9,39l-3.3,0L728.8,394.2z"/>
		<path class="st3" d="M24,324.3c16.1-10.8,33.6-16.4,53.2-14.2C58.7,311,40.6,315.8,24,324.3z"/>
		<path class="st5" d="M226.4,296.7c0.1,4.6,0.1,9.3,0.5,14s-1.4,6.2-5.9,5.9c-10.3-0.7-20.6-1.1-30.9-1.7c-0.2-0.8-0.3-1.5-0.5-2.3
			c9.6-1.3,19,1.4,28.6,1c4.5-0.2,6.6-1.4,5.4-5.9c-0.9-3.4,1.3-6,1.7-9C225.6,298,226,297.3,226.4,296.7z"/>
		<path class="st3" d="M627,111.3V166l-2.1,0.1c-1-18.2-0.5-36.5-0.7-54.7L627,111.3z"/>
		<path class="st4" d="M129.4,391.4c-10.1-1.2-20.2-2.2-30.2-3.6c-1.5-0.2-6.1,0.5-3.3-4c10.8,0.8,21.6,1.9,32.1,4.5L129.4,391.4z"
			/>
		<path class="st3" d="M378.2,96.8c-4.1,5.7-33.4,22-40,22.3L378.2,96.8z"/>
		<path class="st3" d="M820.8,385.1c2.1-4.5,9.3-6.7,5.6-13.3c-1.7-3-6.5-1.1-8.6-0.7c-4.2,0.9-3.7,6-3.7,8.2
			c-1-4.3,7.4-13.6,12.9-12.1c2.3,0.6,1.8,2.7,2,4.3c0.3,3.5,2.4,7.5-1.7,10.2C825.2,383.1,823,384.2,820.8,385.1z"/>
		<path class="st3" d="M719.8,113.5c-0.6-5.1-2.5-10.9,2.1-13.5c3.1-1.8,9.8-2.1,12,2.5c2.3,4.6,1.4,10.1-2.1,13.7
			c-2.8-5,5.7-12.4-4.3-14.1C717.4,100.4,724.3,110.4,719.8,113.5z"/>
		<path class="st3" d="M805,240.7c-12.9,9.2-26.8,16.6-42,21l-1.6-0.3c14.2-7.2,29-13.4,42.6-21.8C804.3,240,804.6,240.3,805,240.7z
			"/>
		<path class="st1" d="M627.9,53.6c-0.3,3.2-1.7,5.7-4.9,5.8c-3.8,0.1-5.9-2.5-6-6.2s2-5.7,5.6-5.5S627.4,50.5,627.9,53.6z"/>
		<path class="st0" d="M646.5,53.3c-0.3,3.4-2,5.4-5.2,5.3c-4-0.2-5.6-2.8-5.4-6.6c0.1-3.4,2.3-5,5.4-4.7
			C644.8,47.5,646.2,50,646.5,53.3z"/>
		<path class="st2" d="M664.5,52.9c-0.1,4.1-1.8,6.5-5.3,6.4c-3.3-0.1-5.4-2.3-5.5-5.8s1.6-5.8,5.2-5.8S663.9,50.3,664.5,52.9z"/>
		<path class="st1" d="M610.6,412.4l26.9-4.4c0,0.9,0,1.9,0,2.8c-9.2,3.3-18.9,4-28.4,5.2C609.6,414.8,610.1,413.6,610.6,412.4z"/>
		<path class="st2" d="M610.6,412.4l-1.6,3.6c-7.9,1.9-15.9,3.1-24,3.5c0.5-1,1-2.1,1.5-3.1C594.4,413.9,602.6,413.6,610.6,412.4z"
			/>
		<path class="st1" d="M654.1,147.6c0-14.3,0-28.7,0-43l2.4,0.1c-0.9,14.3-0.3,28.5,0,42.8L654.1,147.6z"/>
		<path class="st3" d="M701.5,111c1.8-2.3,6.4,1.8,6.2-4.4c-0.2-11.2-9.2-3.8-13.2-7.3c4.3-2.9,9.9-2.8,14.1,0.3
			c3.1,2.2,2.5,8.3,1.2,11.9C707.9,116.5,704.4,111.4,701.5,111z"/>
		<path class="st3" d="M842,292.4c-6.7,6.5-19.3,14.1-29.8,18.2C813.3,308,837,293.3,842,292.4z"/>
		<path class="st4" d="M482.2,404.8l2.6,1.3c-3.6,7.5-7.5,15-12.6,21.6c-0.3-1.5-0.5-3-0.8-4.4C474.1,416.6,477.7,410.4,482.2,404.8
			z"/>
		<path class="st4" d="M141.3,425.6l-3.1-3.2c-1.1-5.3-1-10.7,0.1-16l3.1-1.7C142.1,411.7,142.1,418.7,141.3,425.6z"/>
		<path class="st3" d="M771.5,147.1c-9.7-3.8-17.6-7.8-28.3-6.4C750.9,136.1,763.2,139.1,771.5,147.1z"/>
		<path class="st4" d="M65.6,225.1l30.7,14.7l-0.9,2l-30.7-14.6C65,226.5,65.3,225.8,65.6,225.1z"/>
		<path class="st3" d="M752.5,118.9c6.7,0.9,5.3-3.7,5.8-7.2c0.8-5.9-4.1-3.9-6.6-5.1c2.4-3.8,6.1-2.5,7.8-0.4
			c3.2,4,1.5,9.3,0.2,13.5C758.8,122.9,755.3,120.6,752.5,118.9z"/>
		<path class="st3" d="M270.3,758.6c0,1.3,4.9,4.7,0.9,7.6c-2.5,1.8-6.1-0.3-7.4-3.2C260.3,755.3,271.4,762.1,270.3,758.6z"/>
		<path class="st1" d="M784.8,165.5c0.2-4.7,0.5-9.4,0.5-14c0.1-5.7,2.9-6.8,7.8-4.7c-10.5,3.5-4.1,12.7-6.6,18.9L784.8,165.5z"/>
		<path class="st1" d="M141.3,404.8l-3.1,1.7c-0.2-1-0.3-1.9-0.2-2.9c1.2-6.9-1.4-11.1-8.6-12.1l-1.4-3.1c0.9,0.1,1.9,0.3,2.8,0.5
			C142.5,392.4,142.5,392.5,141.3,404.8z"/>
		<path class="st3" d="M653.9,101.6c-9.2-0.5-18.4-3.5-27.4,0.7c-1.2,0.6-1.9,0-2-1.1c-0.2-2.3,1.3-2.9,3.2-3
			c8.7-0.2,17.4-0.5,26.1,0.5C653.8,99.7,653.8,100.6,653.9,101.6z"/>
		<path class="st3" d="M785.4,388.3c1-0.7,2-1.3,3.1-1.8c2.7-0.9,6-4,8-2c2.8,2.8,1.4,7.4,1.3,11.3c0,0.9-0.6,1.6-1.5,1.7
			c-0.2,0-0.3,0-0.5-0.1c-1.3-0.1-1-0.8-0.9-1.9c0.4-9.3,0.4-9.3-8-5.5C786.4,389.4,785.9,388.9,785.4,388.3z"/>
		<path class="st1" d="M674.8,403.5c-1.9-2-5.8,3.7-6.8-1.8l20.2-6.4c1.1,0.2,2.8-0.1,3.2,0.6c1.3,1.9-0.5,2.3-1.9,2.8l-10.3,3.5
			L674.8,403.5z"/>
		<path class="st4" d="M653,166.6h-25.3c0-0.6,0-1.3,0-1.9c8.4-1.4,16.8,0.6,25.2-0.2L653,166.6z"/>
		<path class="st4" d="M175.5,311.7c-9.4,0.1-18-2.7-26.5-6.3c8.8,0.5,17.1,4.1,26,4C175.2,310.1,175.3,310.9,175.5,311.7z"/>
		<path class="st2" d="M637.5,410.8c0-0.9,0-1.9,0-2.8c5.4-1.3,10.6-4.5,16.4-1.7l-0.1-0.1c-0.2,1-0.3,1.9-0.5,2.8l-3.9,0.5
			L637.5,410.8z"/>
		<path class="st4" d="M239.3,97.4c-5.4,6.7-0.4,14.9-3.6,22.1C231.8,108.8,233.6,98.2,239.3,97.4z"/>
		<path class="st4" d="M137.6,181c-8.6-2.5-16.9-5.5-24.3-11.3l25.2,9.6L137.6,181z"/>
		<path class="st4" d="M206.7,272.2c-8.5-0.2-16.9-2.4-24.4-6.5l26.3,4.8L206.7,272.2z"/>
		<path class="st4" d="M163.6,133.7c-5.6-5.9-1.5-13.7-3.9-20.3c3.9,6.2,3.2,13.3,4,20.2L163.6,133.7z"/>
		<path class="st3" d="M784.8,165.5l1.7,0.1c-0.5,9-0.9,17.9-1.4,26.9l-2.6,0.2C783.8,183.7,782.9,174.5,784.8,165.5z"/>
		<path class="st1" d="M586.6,416.5c-0.5,1-1,2.1-1.5,3.1c-4.4,0.6-8.7,2.5-13.3,1.5l-1.5-2.8l1.6-1.1L586.6,416.5z"/>
		<path class="st2" d="M643.4,71.8l0.2,1.6l-39-0.2c0-0.6,0-1.1,0-1.6L643.4,71.8z"/>
		<path class="st3" d="M146.4,259.8V290h-2.2c0-10.5,0-20.9,0-31.4c0-2.1,1.5-2.4,3.1-1.9c1.9,0.5,1.4,1.5,0.1,2.3
			C146.4,258.5,146.2,259,146.4,259.8z"/>
		<path class="st4" d="M178.8,191c-6.3-1.2-12.6-2.3-18.8-3.6c-0.6-0.1-1.1-0.9-2.3-1.9c7.6-0.3,13.9,3.3,20.7,2.8
			C178.5,189.2,178.6,190.1,178.8,191z"/>
		<path class="st4" d="M59.7,240.5c2.3,8.7,1.2,16.4,5.3,25C59.1,259.8,57.6,252,59.7,240.5z"/>
		<path class="st3" d="M821.3,229.9c-4.5,4.8-10.1,8.5-16.3,10.7l-1.1-1.1l15.8-10.3L821.3,229.9z"/>
		<path class="st3" d="M745.5,180.8c5.5,0.4,10.8,2.6,15,6.3l-15.4-4.3C745.3,182,745.4,181.4,745.5,180.8z"/>
		<path class="st2" d="M666.6,401.7c0.5,3.1,0.5,3.1-6.2,5.5h-3.3c-0.6-1.2-2.1-1.6-3.3-1c0,0,0,0,0,0l0.1,0.1
			C656.9,401.3,662.2,402.8,666.6,401.7z"/>
		<path class="st4" d="M173,403.1l2.9,0.2c0.1,5.5,0.3,11,0.4,16.5l-3.9-0.1C172.2,414.2,171.2,408.6,173,403.1z"/>
		<path class="st5" d="M222.9,272c4.1,5.5,1.6,11.6,1.9,17.5l-2.4-0.5c-0.2-5.1-0.4-10.1-0.7-15.2
			C222.1,273.2,222.5,272.6,222.9,272z"/>
		<path class="st4" d="M180.5,42.7c0.3-0.3,0.2-0.7-0.1-1c0,0,0,0,0,0c5.9-4.6,11.7-4.5,17.4,0.6l-1.4,1.2
			C191.3,39.3,185.9,41.5,180.5,42.7z"/>
		<path class="st4" d="M140.1,215.4c6,0.6,12,2,17.7,4.1c-0.3,0.2-0.5,0.6-0.3,0.9c0,0,0.1,0.1,0.1,0.1c-6.1-0.1-12.2-1.5-17.8-4
			C140.2,216.3,140.3,215.8,140.1,215.4z"/>
		<path class="st4" d="M111.1,170.7c-5.8-2.2-11.2-4.9-15.7-9.8l16.7,8.1C111.7,169.5,111.4,170.1,111.1,170.7z"/>
		<path class="st4" d="M767.9,302c-5.1,5.2-9.6,7-14.7,7.6C756.7,306.1,761,303.9,767.9,302z"/>
		<path class="st4" d="M175.5,311.7l-0.5-2.3c4.4,3.3,10.4-0.6,14.6,3.2c0.1,0.8,0.3,1.5,0.5,2.3
			C185.3,313.3,179.9,315.1,175.5,311.7z"/>
		<path class="st3" d="M827.3,333.1c-3.3,4-7.9,5.5-12.8,6.5C818,336.2,822.4,333.9,827.3,333.1z"/>
		<path class="st3" d="M167.6,37.9c-3.4,5.7-5,11.7-2.2,18.3c-4.8-5.9-4.3-11.7,1.2-19.3L167.6,37.9z"/>
		<path class="st4" d="M153.4,58.2c-4-5.3-4.2-10.7-0.7-16.2c-0.5,4.9-0.1,9.9,1.1,14.7C153.6,57.2,153.5,57.7,153.4,58.2z"/>
		<path class="st5" d="M654.1,147.6l2.3-0.1c1.1,4.6,0.7,9.5-1.4,13.8C654,156.8,653.3,152.2,654.1,147.6z"/>
		<path class="st5" d="M206.7,272.2l1.9-1.7c4.8,0.4,9.8-1.6,14.3,1.5l-1.2,1.8C216.8,272.6,211.5,274.7,206.7,272.2z"/>
		<path class="st1" d="M471.4,423.3c0.3,1.5,0.5,3,0.8,4.4l-5,8.6l-2.3-1.9C466.9,430.6,468,426.2,471.4,423.3z"/>
		<path class="st3" d="M737.4,316.6c5-4.1,9-5.9,13.8-5.7C747.3,314,742.5,316,737.4,316.6z"/>
		<path class="st5" d="M214.1,47.6c1.7,5,0.5,9.5-2.5,13.7l-2.8,1.1c2.9-4.5,3-9.6,3-14.7L214.1,47.6z"/>
		<path class="st5" d="M222.4,289l2.4,0.5c2.7,1.9,1.6,4.6,1.6,7.2l-1.1,2C219.6,296.9,223,292.3,222.4,289z"/>
		<path class="st4" d="M139,83.6l-11.9,5.1c2.6-4.9,7.3-5,11.4-6.7L139,83.6z"/>
		<path class="st4" d="M214.1,47.6l-2.3,0.1c-0.1-3.7-2.3-6.7-3.6-10l1.1-1.2C212.2,39.5,213.8,43.4,214.1,47.6z"/>
		<path class="st5" d="M60.5,228.4v9.7c-3.3-3-2.9-6.3-2.2-9.7H60.5z"/>
		<path class="st4" d="M197.8,42.3c2.8,2.7,4.1,5.8,2.6,11.3c-1.7-4.3-2.8-7.2-4-10.1L197.8,42.3z"/>
		<path class="st4" d="M121.9,128.9c3.5-0.2,7.4-3.1,10.6,1.5h-10.6V128.9z"/>
		<path class="st4" d="M125,88.4c-1.7,2.5-3.9,4.2-7.8,3.9C119,89.9,121.9,88.4,125,88.4z"/>
		<path class="st4" d="M267.8,61.2c-2.7,2.8-5.4,3.9-9.8,5.1C261.1,62.4,263.7,61.1,267.8,61.2z"/>
		<path class="st4" d="M84.1,154.2c2.6,1.3,5.2,2.5,7.8,5.5c-4.4,0-6.5-2.3-8.9-4.1L84.1,154.2z"/>
		<path class="st4" d="M70.3,273c3.8,0.5,5.4,2.1,6.7,4.4C74.6,277.3,72.4,276.3,70.3,273z"/>
		<path class="st4" d="M246.8,71.5c1.6-1.8,3-3.9,5.7-2.5C251.4,71.1,249,72.1,246.8,71.5z"/>
		<path class="st5" d="M782.6,192.8l2.6-0.2c0.2,2.1,0.9,4.4-1.6,6C781.1,196.9,782.3,194.8,782.6,192.8z"/>
		<path class="st5" d="M653.9,101.6c0-1-0.1-1.9-0.1-2.8c3.1,1,3.8,3.1,2.7,6l-2.4-0.1C654,103.6,654,102.6,653.9,101.6z"/>
		<path class="st3" d="M830.6,120.5c2.1,1.1,3.7,2.9,4.5,5.1c-3.5,0.6-4.4-2.2-6-4L830.6,120.5z"/>
		<path class="st4" d="M82.9,155.6l-4.5-2.4c2.7-2.2,4,0.1,5.7,1L82.9,155.6z"/>
		<path class="st3" d="M836.8,127.1c0.5,1.3,1.5,3.5,1.3,3.6c-2.2,1.4-2.2-0.6-2.4-2L836.8,127.1z"/>
		<path class="st4" d="M68.6,144.5c1.5,0.4,3.6,1.7,2.9,2.6c-1.6,2.1-2.6-0.8-4-1.4L68.6,144.5z"/>
		<path class="st4" d="M61.2,138.9c-0.1,1.1-0.7,1.6-1.3,1.2c-0.8-0.4-1.5-1.1-2-1.9c-0.3-0.6,0.5-1.2,1.2-0.9
			C59.8,137.8,60.5,138.3,61.2,138.9z"/>
		<path class="st4" d="M203.9,33.1c-1.3-0.3-2.7-1.3-2-2.2c1.2-1.7,2.2,0.2,3.2,1C204.6,32.3,204.3,32.7,203.9,33.1z"/>
		<path class="st4" d="M63.5,266.3c0.5-0.3,1-0.8,1.1-0.8c0.5,0.4,1.1,0.9,1.3,1.4c0.2,0.8-0.3,1.5-1.2,1
			C64.1,267.6,63.8,266.9,63.5,266.3z"/>
		<path class="st4" d="M64.9,143.7c-1.5-0.4-3.5-1.7-2.8-2.6c1.7-2.1,2.6,0.8,3.9,1.4L64.9,143.7z"/>
		<path class="st4" d="M205,31.9l3.3,3.1l-1.3,1l-3.1-2.9L205,31.9z"/>
		<path class="st4" d="M64.3,224.3c-0.8,0.6-1.2,1.1-1.7,1.3c-0.4,0-0.9-0.1-1.2-0.4c-1.2-0.9,0.4-1.3,0.5-1.3
			C62.7,223.9,63.5,224.1,64.3,224.3z"/>
		<path class="st1" d="M296.8,150.8c1,0.1,2.1-1.6,3.1,0.1c-0.3,2.1-1.9,1.2-3.1,1.4C296.8,151.7,296.8,151.3,296.8,150.8z"/>
		<path class="st4" d="M66,142.5l2.6,2l-1.1,1.2l-2.5-2L66,142.5z"/>
		<path class="st3" d="M826.5,119.1l-2.6-2.3l1.7-1.2l1.9,2C827.1,118.1,826.8,118.6,826.5,119.1z"/>
		<path class="st3" d="M752.4,373.3l-0.1,0.3L752.4,373.3L752.4,373.3z"/>
		<path class="st4" d="M208.3,37.6L207,36l1.4-1l1.1,1.4L208.3,37.6z"/>
		<path class="st4" d="M153.6,39.7l0.5-1c0.2,0.2,0.5,0.4,0.5,0.5c-0.1,0.4-0.3,0.7-0.5,1L153.6,39.7z"/>
		<path class="st4" d="M92.4,160.3l0.5-0.5c0.2,0.3,0.4,0.6,0.5,1c0,0.1-0.3,0.3-0.5,0.5L92.4,160.3z"/>
		<path class="st4" d="M257.2,65.6c0.2,0.3,0.4,0.6,0.5,1c0,0.1-0.3,0.3-0.5,0.5c-0.2-0.3-0.4-0.6-0.5-1
			C256.7,66,257.1,65.8,257.2,65.6z"/>
		<path class="st4" d="M254.8,67.7l-0.5,1c-0.2-0.2-0.5-0.4-0.5-0.5c0.1-0.4,0.3-0.7,0.5-1L254.8,67.7z"/>
		<path class="st3" d="M166.6,36.9l2-1.8l-0.2,0.3l0.4,0.2c-0.4,0.8-0.7,1.5-1.1,2.3L166.6,36.9z"/>
		<path class="st4" d="M74,148.3l-0.5,1c-0.2-0.2-0.5-0.4-0.5-0.5c0.1-0.4,0.3-0.7,0.5-1L74,148.3z"/>
		<path class="st3" d="M829.1,121.7l-1.5-1.5l1.3-1.1l1.5,1.4L829.1,121.7z"/>
		<path class="st3" d="M827.5,117.6l1.6,1.4l-1.3,1.1l-1.2-1.1C826.8,118.6,827.1,118.1,827.5,117.6z"/>
		<path class="st3" d="M835.8,128.8c-0.6-0.5-1.7-0.9-1-2s1.4-0.4,2,0.3L835.8,128.8z"/>
		<path class="st4" d="M60.5,228.4h-2.2c0.2-0.8,0.3-1.8,1.4-1.6C60.1,226.9,60.3,227.9,60.5,228.4z"/>
		<path class="st6" d="M265.5,289.6c-16.1-5.9-28.3-16.9-38.5-30.3c-16.7-25.5-26.6-54.8-28.8-85.2c-0.4-5.7-0.1-8.4,7.1-7.5
			c10.4,1.2,20.9,1.1,31.3-0.2c4.7-0.6,6.9,0.6,9,5c7.1,14.8,14.6,29.4,22.4,43.8c2,3.7,0.7,10.4,5.3,10.8c3,0.3,6.6-4.7,9.8-7.4
			c12.2-10.2,24.4-20.4,36.5-30.6c2.4,1,2,3.1,2.1,4.6c2.3,24.3,4.4,48.6,6.7,72.8c0.4,4.5-0.6,7.5-4.8,9.6
			c-7.1,3.6-13.8,7.9-21,11.3C290.7,292.1,278.2,292.8,265.5,289.6z M289.5,256.6l-0.2-0.9h-33.1c0,0.3,0,0.6,0,0.9H289.5z"/>
		<path class="st7" d="M428.9,261.9c3.5-7,6.5-13,9.6-18.9c1.5-2.8,2.3-6.8,5.9-7.1c3.9-0.4,4.7,3.9,6.3,6.5
			c3.8,6.1,7.3,12.3,10.9,18.5c3.2-1.2,3.2-5.3,7-6.2c0.1,4.2-3,6.5-5,9.2s-3.3,0.3-4.3-1.4c-3.9-6.6-8-13.2-11.6-19.9
			c-2.5-4.7-4-3.9-6.1,0.3c-3.8,7.8-7.8,15.4-12.2,24.1c-6.2-7.8-11.9-14.7-17.2-21.8c-2.4-3.3-4-3.8-6.4-0.2
			c-3.3,4.8-6.9,9.3-10.8,13.6c2.2-7.7,7.1-13.6,12.3-19.3c2.8-3.1,3.8,0.4,4.9,1.8C417.6,247.5,422.9,254.3,428.9,261.9z"/>
		<path class="st7" d="M389.9,230.1c30,3,60.1,1.1,90.1,1.9C449.9,235.8,419.8,234.7,389.9,230.1z"/>
		<path class="st7" d="M418.3,271.4c21.6,2.8,43.5,2.4,65-1.1c-1.8,4.2-4.6,3-6.6,3.4c-18,3.3-36.1,2.7-54.2,1
			c-2.1-0.2-4-0.4-4.1-3.1L418.3,271.4z"/>
		<path class="st7" d="M490.2,259.4c-3-4-6.1-7.9-9.1-11.9c-2.7-3.6-4.7-3.3-6.8,0.7c-1.2,2.3-2.3,5.3-6.4,5.6c2.5-4,5-8,7.5-12
			c0.8-1.3,2-1.2,3.1-0.3C484.1,246.3,488.9,251.6,490.2,259.4z"/>
		<path class="st4" d="M375.9,406.8c1.4-5.3,4.3-9.8,7.2-14.4l2.2,2.1c-2,5.5-4.8,10.8-8.4,15.5L375.9,406.8z"/>
		<path class="st7" d="M418.4,271.5l-1.1-0.4c0,1.2,0.6,0.4,1,0.3L418.4,271.5z"/>
		<path class="st3" d="M78.8,438.7c13.1,2.6,26.1,5.4,39.2,8.1C104.2,447.3,91.3,443.7,78.8,438.7z"/>
		<path class="st3" d="M37.1,505.8v-25l2-0.1c0,8.8,0.1,17.6-0.1,26.4c0,2-1.7,1.9-3.3,1.3c-7.2-2.4-14.2-5.4-20.4-10.3
			C22.3,499.9,28.6,504.1,37.1,505.8z"/>
		<path class="st4" d="M38.6,431.8c0.5-5.3-1.6-8.3-6.8-10.4c-7-2.8-13.6-6.5-18.6-12.8c9,4.7,18.2,9.1,26.9,14.4
			c2.9,1.8,1.4,5.9,0.5,8.9L38.6,431.8z"/>
		<path class="st3" d="M73,474.8c7.4,0.8,14.9,0.8,21.8,4.1C87.1,479.6,79.9,477.8,73,474.8z"/>
		<path class="st3" d="M74.5,403.3c-6.7-0.7-13.1-2-19.8-6.1c4.9-1.3,7.8,1.5,11,2.1C68.9,400,71.1,403.1,74.5,403.3z"/>
		<path class="st1" d="M40.1,440.6l-0.4,28.2l-2.4-0.1c0.4-9.4,0.8-18.7,1.2-28.1L40.1,440.6z"/>
		<path class="st3" d="M95.8,459.9l21.4,3c-7.6,2.3-14.7,0.5-21.8-0.8C95.5,461.4,95.6,460.6,95.8,459.9z"/>
		<path class="st3" d="M77.2,457.2c-6.8-1.1-13.3-3.6-19.1-7.4c6.8,1.3,13.5,2.6,19.1,7.3L77.2,457.2z"/>
		<path class="st3" d="M54.7,429.2c6.6,1,12.5,3.8,18,7.3C66,436,60.1,433.1,54.7,429.2z"/>
		<path class="st3" d="M27,381.5l14.2,7.6C34.8,389.5,30.4,386.3,27,381.5z"/>
		<path class="st3" d="M56.8,493c6.4-0.4,10.5,2.4,14.8,4.2C66.6,497.9,62.2,496.4,56.8,493z"/>
		<path class="st5" d="M37.3,468.7l2.4,0.1c0.8,2.8,0.3,5.8-1.4,8.2C36.4,473.7,36.5,471.3,37.3,468.7z"/>
		<path class="st1" d="M38.6,431.8l1.8,0.2l-0.3,5.7h-1.7C38.5,435.6,38.6,433.7,38.6,431.8z"/>
		<path class="st4" d="M38.5,437.6h1.7c0.7,0.9,0.7,2.1-0.1,3h-1.6C38.5,439.6,38.5,438.6,38.5,437.6z"/>
		<path class="st3" d="M77.1,457.1l0.3,0.1L77.1,457.1L77.1,457.1z"/>
		<path class="st3" d="M514.9,449.9c20.8-0.5,41.5-0.1,62.3-1.8c6.1-0.5,12.2-2.7,18.4-1v-0.2c-9.4,4-19.5,3.2-29.3,3.8
			c-17.1,1-34.2,2-51.3,0.1C514.8,450.5,514.8,450.2,514.9,449.9z"/>
		<path class="st2" d="M531.5,425.1c-2.2,0.1-4.4,0.3-6.6,0.3c-11.6,0-11.6,0-13.2,10.7l-1.5-0.2c2.8-4.4-0.3-8.9,0.4-13.3l4.4-1.1
			c5.4,0.5,11-1.2,16.3,0.9C531.3,423.3,531.4,424.2,531.5,425.1z"/>
		<path class="st6" d="M293.9,739.6c0.5,0.2,1.5,0.5,2.4,0.8c11.2,4.2,22.1,8.8,32.1,15.5c2.9,1.9,4.5,3.6,3.2,7.8
			c-6.4,19.3-12.4,38.8-18.2,58.3c-1.1,3.5-2.2,4.1-5.7,3.1c-31-9.2-62-18.1-92.9-27.1c-1.9-0.5-4.3-0.7-4.8-2.9
			c-0.5-2.7,2-3.7,3.9-4.9c10.1-6.3,21.6-6.7,33-7.5c11-0.8,21.3-2.8,30.5-9.9c6.1-4.7,7.9-11.2,10.3-17.6c1.5-3.9,2-8.2,3-12.3
			C291.1,741.3,290.7,739.1,293.9,739.6z M305.7,791.8c2.1,2.3,4.2,2.1,6.3,0.1c1.5-0.3,2.7-1.5,3-3c2.1-2.6,2.1-5.3,0.1-8l-1.5-1.5
			c-3.6-2.1-7-2.9-9.5,1.6c-2.4,3.1-2.5,6.2,0.2,9.3C304.7,790.8,305.2,791.3,305.7,791.8z M257.9,799.2c0.2,0,0.4,0,0.6,0
			c0.1,0,0.1,0.2,0.2,0.3L257.9,799.2c-6.8-2.9-2.4-10.6-6.4-14.7C254,789.3,246.5,798.3,257.9,799.2z M280.1,805
			c10.9,3.2,21.7,6.6,33.3,5.2C302.3,808.4,291.2,806.7,280.1,805z"/>
		<path class="st6" d="M410.8,596c1.1-6.3-4.5-12.1-1.4-18.5c-5.8-1.3-4.6-8.5-9-10.9c-2.9-1.6-2.6-3.7-2.1-6.3
			c2.8-13.8,10.9-24.9,17.6-36.7c1.6-2.8,3.1-1.5,4.8-0.4c14,9,28,18,42,26.9c1.8,1.2,3.1,2.1,1.5,4.6c-17.5,28-34.9,56.1-52.3,84.2
			c-0.6,1-1.7,1.7-3.1,3c-3.8-7-5.2-13.8-3.5-21.1c1.8-7.7,3.6-15.5,5.4-23.2c3.6,0,7.3-0.7,10.9,0.6c0.8,1.2,1.7,1.4,2.7,0.2
			c2.1-2.2,3.6-4.9,4.5-7.8l1.2-1.8l1.9-2.6c0.8-1.1,2.9-2.4,1.5-3.4s-2,1.3-2.5,2.5l-1.8,2.7l-1.2,1.8c-2.3,2-3.3,4.7-4.5,7.3
			c-0.3,0-0.7,0-1,0.1C418.9,594,414.8,595,410.8,596z M444.5,565.9l-1.9,2.7c-0.9,1-3,2.3-1.5,3.3s2-1.3,2.4-2.6
			c1.2-0.5,1.5-1.5,1.8-2.6l1.3-1.8l1.8-2.6l1.2-1.8c0.6-0.9,1.3-1.8,1.9-2.7c1.4-1.2,2.9-2.3,2.7-4.7c-2.6,0.3-2.9,2.3-3.5,4
			c-1.2,0.4-1.5,1.5-1.8,2.6l-1.3,1.8l-1.8,2.6L444.5,565.9z M427.1,540.4c-2.7-2-5.4-2.3-8,0.2l-1.5,1.4c-3.6,3-3.4,6.4-0.5,9.6
			c2.6,2.8,6.1,3.5,9.4,1.2c4.1-2.8,4.8-6.6,2.1-10.9L427.1,540.4z M437.4,579.9l-1-2.1c-0.7,0.6-1.3,1.2-1.9,1.9
			c-0.4,0.6-0.1,1.4,0.7,1.2C436,580.7,436.8,580.4,437.4,579.9L437.4,579.9z M439,573.4c-0.5,0.9-1.1,1.7-1.5,2.5
			c0,0.1,0.5,0.5,0.9,0.7c0.6-0.7,1.2-1.5,1.7-2.3C439.7,574,439.4,573.6,439,573.4L439,573.4z"/>
		<path class="st4" d="M360.6,434.2c0.8-3.2,2.4-6.2,4.8-8.6l3.2,0.1l-5.7,10.7C362.1,435.7,361.4,435,360.6,434.2z"/>
		<path class="st3" d="M421.7,598.2c-3.6-1.3-7.2-0.6-10.9-0.6c0-0.5,0-1.1-0.1-1.6c4.1-1,8.1-1.9,11.8,1.3
			C422.2,597.5,421.9,597.8,421.7,598.2z"/>
		<path class="st4" d="M283.4,434.6l-0.1-0.2l1.5,1.8C283.9,436.1,283.2,435.8,283.4,434.6z"/>
		<path class="st5" d="M686.7,429.8l-7.3,1.8l-0.7-1.4c1-2,3.3-1.4,4.8-2.4l14.1-4C693.8,428.6,689.4,427.6,686.7,429.8z"/>
		<path class="st5" d="M720,416.7l-3.6,2.3c-4.8,0.9-9,4.3-14.3,3.5C708.2,420.9,712.8,415,720,416.7z"/>
		<path class="st2" d="M531.5,425.1c-0.1-0.9-0.2-1.8-0.3-2.6c4.3-2.6,9.1-1.6,13.7-2c0,1,0,2.1,0,3.1L531.5,425.1z"/>
		<path class="st2" d="M545,423.5c0-1,0-2.1,0-3.1l1.3-0.8l11.5-0.4c0.6,1,1.2,2,1.7,2.9L545,423.5z"/>
		<path class="st2" d="M559.5,422.1c-0.6-1-1.2-2-1.7-2.9c0-0.4,0.2-0.7,0.5-1h12l1.5,2.8C567.7,421.4,563.7,423.1,559.5,422.1z"/>
		<path class="st3" d="M189.6,73.3c-0.7,5.1,4.7,7.3,5.6,11.6c0,0.6-0.1,1.2-0.1,1.8c-5.6-2-8.2-6.2-8.5-11.9
			C187.4,73.9,188.2,73,189.6,73.3z"/>
		<path class="st4" d="M337.3,540.3c-14.8,37.1-28.8,74.5-42.5,111.9C306.2,613.9,320.4,576.5,337.3,540.3z"/>
		<path class="st4" d="M357.9,556.7c-6.3,17.9-12.5,35.8-18.8,53.8l-2.1-0.7l18.7-53.8L357.9,556.7z"/>
		<path class="st4" d="M434.9,396.6l21.3-54.3l1.9,0.7c-7.2,18.2-12.6,37.1-22.2,54.4C435.6,397.1,435.3,396.8,434.9,396.6z"/>
		<path class="st4" d="M341.5,528.6c7.5-16.6,15.1-33.1,22.6-49.7c1.6,5.7-2.2,9.4-4,13.7c-4.5,10.7-9.5,21.3-14.4,31.8
			c-0.8,1.8-1.1,4.7-4.4,4L341.5,528.6z"/>
		<path class="st4" d="M352.1,655.1c2.4-15.2,7.2-29.6,12.4-44C361.4,626,357.9,640.9,352.1,655.1z"/>
		<path class="st4" d="M405.3,393.6L424,355l1.9,0.9c-6.2,12.9-12.4,25.8-18.6,38.7L405.3,393.6z"/>
		<path class="st4" d="M357.8,550.1c4.7-13.3,9-26.7,16.8-38.9l-14.9,39.7L357.8,550.1z"/>
		<path class="st4" d="M386,544.8c-4.1,12.5-8.1,25-12.2,37.5C375.2,569.1,379.3,556.3,386,544.8z"/>
		<path class="st1" d="M368.6,425.7l-3.2-0.1l5.1-11.2l-6.4-0.3c0-1,0.1-2,0.1-3.1c3.9-1.5,8.9,0.2,11.7-4.2c0.3,1.1,0.7,2.2,1,3.3
			C374.1,415.3,371.4,420.5,368.6,425.7z"/>
		<path class="st4" d="M293.7,659.4c-3.2,10.1-6.4,20.2-9.6,30.3c0.4-10.9,4.2-20.8,7.7-30.8L293.7,659.4z"/>
		<path class="st4" d="M310.2,699l-5.4,20.7l-1.8-0.4c0.8-7.1,3.3-13.8,5.2-20.7L310.2,699z"/>
		<path class="st4" d="M386.8,436c-2.5,8-6.8,15.2-10.8,22.5l0.1,0.1c0.3-8.5,5.7-15.1,8.8-22.6L386.8,436z"/>
		<path class="st5" d="M434.5,400.9c-1.3,7.4-5.7,13.3-9.2,19.6c1.7-7.2,4.6-14.1,8.4-20.4C434,400.1,434.4,400.4,434.5,400.9
			C434.5,400.9,434.5,400.9,434.5,400.9z"/>
		<path class="st3" d="M482.8,328.9c-8.2,3.1-16.5,5.7-25.4,3.5C465.9,331.8,474.3,330,482.8,328.9z"/>
		<path class="st4" d="M386.8,436h-1.9l6.5-14.5l2.4,1.1C392.8,427.6,390.4,432.3,386.8,436z"/>
		<path class="st4" d="M403.3,402.1c-2.2,6-4.5,11.9-9.8,18.7c2.1-8.5,5.7-14,8.6-19.8L403.3,402.1z"/>
		<path class="st4" d="M473.7,378.6l6.5-17.3l1.7,0.6C480.3,367.9,478.4,373.8,473.7,378.6z"/>
		<path class="st4" d="M329.9,630.4l4.9-14.4c1.2,5.4-1,9.9-3,14.5L329.9,630.4z"/>
		<path class="st4" d="M386.1,540.2c1.7-4,2.2-8.6,6.6-12.5c-0.6,4.7-2.6,9.1-5.7,12.7C386.5,541,386.2,540.9,386.1,540.2z"/>
		<path class="st4" d="M376.1,458.5c-3.3,4-2.5,10.1-8,14.5c1.8-6.4,3.5-11.2,8.1-14.5L376.1,458.5z"/>
		<path class="st5" d="M447.7,433.3c2-3.7,4.1-7.4,6.1-11.2c0.6,5.1-2.1,8.6-4.3,12.3L447.7,433.3z"/>
		<path class="st3" d="M443.6,445.4l-6.8,12.1c-0.4-5.4,3.8-8.4,5-13.1L443.6,445.4z"/>
		<path class="st3" d="M324.6,649.3c0.5-5.6,2.2-11,5-15.9C329.6,640.4,326.7,644.8,324.6,649.3z"/>
		<path class="st4" d="M380.1,498.9c-1,3.9-2,7.7-6,11.6C375.1,505,376.9,501.5,380.1,498.9z"/>
		<path class="st4" d="M398.8,518.6l-5.1,9.3c-0.4-4.3,1.7-7.4,3.8-10.5L398.8,518.6z"/>
		<path class="st3" d="M434.5,457.9c0.6,4.4-1.6,7.2-3.6,10.1l-1.6-0.9L434.5,457.9z"/>
		<path class="st3" d="M442.9,445.5c0.6-5.1,2.2-7.3,4.6-9.9C448,439.5,445.9,441.6,442.9,445.5z"/>
		<path class="st4" d="M430.8,343.8c-0.3,2.9-1,5.5-4,7.8C426.8,347.8,428.1,345.5,430.8,343.8z"/>
		<path class="st4" d="M382.6,492.2c1.3-2.5,1.9-5.6,5.4-7.5c0,3.9-2.5,6.1-4.2,8.6L382.6,492.2z"/>
		<path class="st4" d="M400.4,464.7c-0.5-3,1.4-4.8,3.5-7.5C404.6,461.5,402.2,462.9,400.4,464.7z"/>
		<path class="st4" d="M388,486.2c-0.1-5.1,1.9-6.8,4-9.5C392.6,480.9,390.4,482.4,388,486.2z"/>
		<path class="st4" d="M392.9,476.9c-2.1-2.6,2.4-2.7,1.8-4.7C394,473.6,395.6,476,392.9,476.9z"/>
		<path class="st3" d="M426.3,473.4c0.1-2,1.3-3.8,3.1-4.7C430.3,471.6,428.4,472.6,426.3,473.4z"/>
		<path class="st4" d="M406.5,451.2c1.3,4.3,0.1,5.3-1.5,6.3C403.2,454.9,406.1,454.3,406.5,451.2z"/>
		<path class="st4" d="M409.5,499.6l3-4.5l1.2,1.1l-2.9,4.6C410.4,500.4,409.9,500,409.5,499.6z"/>
		<path class="st4" d="M401.7,514.1c-1,1.5-2,3-3,4.5l-1.3-1.2l2.9-4.6L401.7,514.1z"/>
		<path class="st4" d="M400.5,512.8c1-1.4,1.4-3.5,3.9-3.9c0.6,2.5-1.3,3.7-2.6,5.2L400.5,512.8z"/>
		<path class="st4" d="M407.8,505.2c-0.4,1.5-1.7,3.5-2.6,2.8c-2-1.6,0.7-2.7,1.4-4L407.8,505.2z"/>
		<path class="st4" d="M400.1,466.6c-0.4,0.5-0.7,1.3-1.3,1.5c-0.9,0.4-1.3-0.4-1.1-1.1c0.2-0.5,0.9-0.9,1.4-1.3
			C399.5,465.9,399.9,466.2,400.1,466.6z"/>
		<path class="st5" d="M459.5,414.9c-1.4,0.7-1.4-0.4-1.3-0.9c0.1-0.6,0.5-1.2,1-1.6c0.4-0.3,0.9-0.2,1.2,0.2
			c0.1,0.2,0.2,0.5,0.1,0.7C460.4,413.9,459.8,414.5,459.5,414.9z"/>
		<path class="st4" d="M339.9,531.5l1.5-3l-0.1-0.1c0.3,1.2-0.3,2.5-1.4,3L339.9,531.5z"/>
		<path class="st4" d="M339.9,531.4c0,0.4-0.1,0.8-0.1,1.2c0-0.3,0.1-0.7,0.1-1C339.9,531.5,339.9,531.4,339.9,531.4z"/>
		<path class="st4" d="M412.5,495.1c0.7-0.6,0.6-2.6,2-1.6c1,0.7,0.3,2-0.8,2.7L412.5,495.1z"/>
		<path class="st3" d="M329.9,630.4l1.9,0.1c-0.5,1-1,1.9-1.5,2.9C329.1,632.5,329.6,631.5,329.9,630.4z"/>
		<path class="st4" d="M409.8,502.6l-2,2.6l-1.3-1.2l1.9-2.6L409.8,502.6z"/>
		<path class="st4" d="M435.9,397.4c-0.1,1.3,0,2.7-1.4,3.5c0-0.4-0.3-0.8-0.8-0.8c0,0,0,0-0.1,0l1.3-3.5
			C435.3,396.8,435.6,397.1,435.9,397.4z"/>
		<path class="st4" d="M402,401c0.5-0.9,0.8-2.9,1.9-2.3c1.6,0.9,0.4,2.4-0.7,3.3L402,401z"/>
		<path class="st5" d="M457.4,418.9c-0.6,0.8-0.3,2.9-1.9,1.9c-1.1-0.7,0-2.1,0.9-2.9C456.7,418.2,457,418.5,457.4,418.9z"/>
		<path class="st4" d="M408.4,501.4l1-1.8l1.3,1.2l-1,1.8L408.4,501.4z"/>
		<path class="st4" d="M366.5,477.7l-1-0.5c0.2-0.2,0.4-0.5,0.5-0.5c0.4,0.1,0.7,0.3,1,0.5L366.5,477.7z"/>
		<path class="st4" d="M368,474.8l-1-0.5c0.2-0.2,0.4-0.5,0.5-0.5c0.4,0.1,0.7,0.3,1,0.5L368,474.8z"/>
		<path class="st4" d="M405.7,396.8l-0.5,0.5c-0.2-0.3-0.4-0.6-0.5-1c0-0.1,0.3-0.3,0.5-0.5L405.7,396.8z"/>
		<path class="st4" d="M383.8,493.2c-0.4,0.5-1.2,1.4-1.3,1.3c-1.2-0.8-0.5-1.6,0.1-2.4C383,492.5,383.4,492.9,383.8,493.2z"/>
		<path class="st5" d="M456.4,417.9c0.4-0.4,0.8-0.8,1.2-1.2c1,0.8,0.4,1.5-0.2,2.2C457,418.5,456.7,418.2,456.4,417.9z"/>
		<path class="st4" d="M425.5,353l0.5-0.5c0.2,0.3,0.4,0.6,0.5,1c0,0.1-0.3,0.3-0.5,0.5C425.9,353.6,425.7,353.3,425.5,353z"/>
		<path class="st4" d="M381.5,497.2l-1-0.5c0.2-0.2,0.4-0.5,0.5-0.5c0.4,0.1,0.7,0.3,1,0.5L381.5,497.2z"/>
		<path class="st4" d="M364.2,411.1c0,1-0.1,2-0.1,3.1c-14.8,3.2-29.9,3.8-44.8,5.6c-0.2-1.8-2.2-1.8-3-3
			C332.1,413.8,348.2,412.8,364.2,411.1z"/>
		<path class="st4" d="M278.9,424.2c-4.6,2.7,0.1,3,1,4.5c1.3,1.9,7,1.3,3.5,6c-5.1-1.3-8.7-5.1-13.2-7.5c-1.4-0.8-3.5-1.5-3-3.6
			c0.5-1.9,2.7-1.8,4.3-2c2.4-0.2,4.9-0.3,7.3-0.5L278.9,424.2z"/>
		<path class="st4" d="M232.7,370c10.4-6.5,21.9-10,33.9-11.8C255.5,362.6,244,365.8,232.7,370z"/>
		<path class="st4" d="M292.6,352.3c8.1-2.2,16.4-3,24.7-4c0.1,0.7,0.2,1.4,0.3,2l-24.7,3.8C292.9,353.6,292.8,352.9,292.6,352.3z"
			/>
		<path class="st5" d="M196.8,410.5c-0.6,7.8,1,15.3,1.8,23C193.9,426.1,195,418.3,196.8,410.5z"/>
		<path class="st2" d="M316.3,416.7c0.8,1.2,2.8,1.1,3,3l-16.4,1.7v-3.2C307.2,417.1,311.7,416.6,316.3,416.7z"/>
		<path class="st4" d="M302.8,418.2v3.2c-4.3,1.3-8.9,1.8-13.4,1.4c0-1-0.1-2-0.1-3C293.7,418.5,298.3,418,302.8,418.2z"/>
		<path class="st4" d="M340.4,344.5l18.7-3.7c-5.7,4-12.1,4.9-18.5,5.6C340.5,345.8,340.4,345.2,340.4,344.5z"/>
		<path class="st4" d="M350,392.6c-6.6-0.5-12.9,3.1-19.7,0.9c6.7-0.2,12.9-5.3,20.1-1.8C350.2,392,350.1,392.3,350,392.6z"/>
		<path class="st4" d="M262.8,438.1c-5.9-5.1-5.7-11.2-3.3-17.8C258.4,426.7,260.7,432.4,262.8,438.1z"/>
		<path class="st4" d="M313.7,371.2l15.4-3.7C324.8,371.2,319.1,372.5,313.7,371.2z"/>
		<path class="st3" d="M359.5,362.6c-6.3,1.1-12.2,4.1-19,2.2l19-4.1V362.6z"/>
		<path class="st4" d="M359.5,362.6v-1.9c4.8-1.5,9.6-3,16.8-3.3C369.9,361.4,364.5,361.4,359.5,362.6z"/>
		<path class="st1" d="M289.3,419.9c0,1,0.1,2,0.1,3c-3.3,1.7-7,1.4-10.5,1.4c0-1.1,0-2.1-0.1-3.2
			C282.4,421.7,285.6,418.9,289.3,419.9z"/>
		<path class="st5" d="M235,411c-0.3,5-2.3,9.9-1.6,14.5C231.6,420.9,230.4,415.8,235,411z"/>
		<path class="st4" d="M276.7,404.4c5.4-3,11.6-4.2,17.7-3.2l-16.8,4.4L276.7,404.4z"/>
		<path class="st4" d="M239,482l9.6,8.6l-1.4,1l-9.7-8.5L239,482z"/>
		<path class="st3" d="M312.5,507.2c-2.5-1.2-5.4-2-7.3-5.3c3.8,0.3,6,2.4,8.4,4.2C313.2,506.4,312.9,506.8,312.5,507.2z"/>
		<path class="st5" d="M250.8,392.9c2.9-3.1,5.1-4.8,9.4-4.8C257.8,390.8,254.4,392.5,250.8,392.9z"/>
		<path class="st5" d="M264.7,411.4c1.5-2.1,3.6-3.7,6.1-4.5l1,1.2l-5.9,4.6L264.7,411.4z"/>
		<path class="st4" d="M252.2,494.1c1.4,0.8,3.2,1.3,3.5,3.4c-2.6,1.2-3.3-1.4-4.7-2.4L252.2,494.1z"/>
		<path class="st4" d="M278.5,515.4c-3.4-0.3-4.8-1.7-6.2-4.2C275.3,510.9,276.8,512.3,278.5,515.4z"/>
		<path class="st3" d="M268.7,474.8c1.7,0.1,2.2,1.8,1.5,2.5s-1.8-0.6-2.4-1.6L268.7,474.8z"/>
		<path class="st5" d="M240.3,404.1c-0.5,0.7-1,1.4-1.6,2c-0.8,0.8-1.5,0-1.4-0.6c0.2-0.9,0.7-1.8,1.4-2.5
			C239.5,402.2,239.9,403.1,240.3,404.1z"/>
		<path class="st4" d="M310.9,474.4l-4.4-3l1.2-1.3l4.4,3L310.9,474.4z"/>
		<path class="st4" d="M312.1,473.1c1.5,0.4,3.5,1.7,2.8,2.6c-1.6,2-2.7-0.6-4-1.4C311.3,473.9,311.7,473.5,312.1,473.1z"/>
		<path class="st5" d="M246.9,395.1c1.1-1,2.1-3.3,3.7-1.4c0.6,0.7-1.4,2.1-2.8,2.4L246.9,395.1z"/>
		<path class="st4" d="M266.3,505.3c-0.9,0.4-1.5,0.8-1.8,0.7c-0.8-0.4-1.5-1.1-1.9-1.8c-0.3-0.6,0.5-1.2,1.2-0.8
			C264.6,504,265.5,504.6,266.3,505.3z"/>
		<path class="st4" d="M278.5,516.6c0.2-0.5,0.3-1.3,0.4-1.3c0.6,0.1,1.2,0.2,1.8,0.4c-0.2,0.5-0.4,1.1-0.5,1.6L278.5,516.6z"/>
		<path class="st4" d="M268.8,507.5c1.5,0.4,3.5,1.8,2.8,2.6c-1.7,1.9-2.7-0.7-3.9-1.6L268.8,507.5z"/>
		<path class="st5" d="M247.8,396.1c-0.8,0.9-1.6,3.1-2.9,1.7c-1.4-1.5,0.9-2.1,2-2.8C247.2,395.4,247.5,395.8,247.8,396.1z"/>
		<path class="st4" d="M230,372.2c-1.1,1.4-3.2,2.5-4,0.9c-1-2.1,2-1.3,2.9-2.3C229.2,371.3,229.6,371.8,230,372.2z"/>
		<path class="st3" d="M263.2,469.2l2.4,2.6c-0.3,0.3-0.7,0.7-0.9,1.1l-2.4-2.3C262.6,470.2,262.9,469.7,263.2,469.2z"/>
		<path class="st4" d="M300.5,465l2.7,2.1l-1.2,1.2l-2.6-1.9L300.5,465z"/>
		<path class="st4" d="M306.5,471.4l-2.6-1.9l1.2-1.3l2.6,1.9L306.5,471.4z"/>
		<path class="st3" d="M315.5,506.8l1.8,1.9c-1.2,1-2.1,0.5-2.9-0.6C314.8,507.7,315.2,507.3,315.5,506.8z"/>
		<path class="st3" d="M248.8,457.3l-2.4-2.5l1.3-0.9l2.6,2.6L248.8,457.3z"/>
		<path class="st3" d="M245.3,453.5c-0.6-0.7-2.8-0.9-1.5-2.3c1-1.2,2.1,0,2.5,1.2L245.3,453.5z"/>
		<path class="st5" d="M277.6,405.6c-1.1,0.7-2.5,1.5-3.1,0c-0.3-0.8,1.2-1.2,2.2-1.3C277,404.8,277.3,405.2,277.6,405.6z"/>
		<path class="st5" d="M262.5,413.7c0.7-0.8,1.5-1.6,2.2-2.4l1.2,1.3c-0.8,1.4-2,1.9-3.5,1L262.5,413.7z"/>
		<path class="st3" d="M262.3,470.7l-1.5-1.5l1-1.2l1.4,1.3L262.3,470.7z"/>
		<path class="st4" d="M225.9,471.7l-1.9-2l1.4-1l1.5,1.5L225.9,471.7z"/>
		<path class="st4" d="M267.7,508.5c-0.4-0.5-1.1-1.4-1-1.6c0.9-1.1,1.5-0.3,2.1,0.5L267.7,508.5z"/>
		<path class="st3" d="M313.6,506l2,0.8l-1.1,1.3l-2-0.9L313.6,506z"/>
		<path class="st4" d="M234.8,480.5l-1.8-1.8c0.4-0.4,0.9-0.7,1.4-1.1l1.5,1.5L234.8,480.5z"/>
		<path class="st4" d="M303.9,469.4l-1.8-1.1l1.2-1.2l1.8,1.1L303.9,469.4z"/>
		<path class="st3" d="M260.3,466.6l1.5,1.4l-1,1.2l-1.5-1.5C259.6,467.4,260,467,260.3,466.6z"/>
		<path class="st4" d="M224,469.8l-1.4-1.5c0.4-0.4,0.9-0.7,1.3-1.1l1.5,1.5L224,469.8z"/>
		<path class="st4" d="M235.9,479.2l1.5,1.5l-1.1,1.3l-1.5-1.4L235.9,479.2z"/>
		<path class="st3" d="M258.8,465.2l1.5,1.4c-0.3,0.4-0.6,0.7-1,1.1l-1.5-1.5C258.1,465.9,258.5,465.5,258.8,465.2z"/>
		<path class="st4" d="M228.9,370.9c0.8-0.5,1.7-1.2,2.4,0.1c0.1,0.1-0.9,0.9-1.4,1.3L228.9,370.9z"/>
		<path class="st4" d="M222.4,465.7l1.5,1.5l-1.3,1.1l-1.4-1.5C221.6,466.4,222,466.1,222.4,465.7z"/>
		<path class="st4" d="M299.5,466.4c-0.5-0.5-1.4-1.2-1.3-1.3c0.7-1.1,1.6-0.6,2.4,0L299.5,466.4z"/>
		<path class="st3" d="M257.8,466.2l-1.5-1.5l0.9-0.8l1.6,1.4L257.8,466.2z"/>
		<path class="st4" d="M221.1,466.8c-0.4-0.7-1.6-1.4-0.2-2.1c0.2-0.1,0.9,0.7,1.4,1.1L221.1,466.8z"/>
		<path class="st4" d="M317.5,477.5L317,478c-0.2-0.3-0.3-0.7-0.5-1c0-0.1,0.3-0.3,0.5-0.5C317.1,476.8,317.3,477.1,317.5,477.5z"/>
		<path class="st3" d="M256.3,464.7l-1.5-1.5l0.9-0.8l1.5,1.5L256.3,464.7z"/>
		<path class="st3" d="M254.3,460.7l1.4,1.7l-0.9,0.8l-1.5-1.5C253.6,461.4,254,461.1,254.3,460.7z"/>
		<path class="st3" d="M252.8,459.1l1.5,1.6c-0.3,0.4-0.6,0.7-1,1l-1.5-1.5C252.1,459.9,252.5,459.5,252.8,459.1z"/>
		<path class="st4" d="M251.1,495.1c-0.5-0.6-1.6-1.3-0.3-2.1c0.2-0.1,0.9,0.7,1.4,1.1C251.9,494.5,251.5,494.8,251.1,495.1z"/>
		<path class="st3" d="M251.2,457.3l1.6,1.8l-1,1.2l-1.5-1.5C250.6,458.3,250.9,457.8,251.2,457.3z"/>
		<path class="st3" d="M250.4,456.5c0.4,0.2,0.7,0.5,0.9,0.9l-1,1.5l-1.5-1.5L250.4,456.5z"/>
		<path class="st3" d="M246.3,452.3l1.4,1.5l-1.3,0.9l-1.1-1.3L246.3,452.3z"/>
		<path class="st4" d="M237.6,483.2c-0.4-0.4-0.9-0.9-1.3-1.3l1.1-1.3l1.6,1.4C238.5,482.4,238,482.8,237.6,483.2z"/>
		<path class="st4" d="M232.9,476.2l1.5,1.5c-0.4,0.4-0.9,0.7-1.4,1.1l-1.6-1.5L232.9,476.2z"/>
		<path class="st4" d="M231.4,474.7l1.5,1.5l-1.5,1l-1.5-1.5L231.4,474.7z"/>
		<path class="st5" d="M270.7,406.9c0.8-0.5,1.5-1,2.2,0c0.1,0.1-0.8,0.8-1.2,1.2L270.7,406.9z"/>
		<path class="st3" d="M267,473.4l1.6,1.4l-0.9,0.9l-1.6-1.4C266.5,474,266.8,473.7,267,473.4z"/>
		<path class="st5" d="M236.3,407.8c0.2,0.3,0.3,0.6,0.4,1c0,0.1-0.3,0.3-0.4,0.5c-0.2-0.3-0.3-0.7-0.4-1
			C235.9,408.1,236.2,407.9,236.3,407.8z"/>
		<path class="st4" d="M229.9,475.7c-0.5-0.5-1-1-1.5-1.5l1.5-1l1.5,1.5L229.9,475.7z"/>
		<path class="st4" d="M248.6,490.7c0.3,0.6,0.9,1.5,0.7,1.7c-0.9,1-1.5,0.2-2-0.6L248.6,490.7z"/>
		<path class="st3" d="M266.1,474.3l-1.5-1.3c0.3-0.4,0.6-0.8,0.9-1.1l1.5,1.5C266.8,473.7,266.5,474,266.1,474.3z"/>
		<path class="st5" d="M262.4,413.6c-0.1,0.3-0.3,0.5-0.4,0.8c0-0.1,0-0.3,0-0.3C262.2,413.9,262.3,413.8,262.4,413.6L262.4,413.6z"
			/>
		<path class="st4" d="M228.4,471.7l1.5,1.5l-1.5,1c-0.5-0.5-1-1-1.5-1.6L228.4,471.7z"/>
		<path class="st4" d="M226.8,472.6c-0.4-0.2-0.7-0.5-0.9-0.9l1-1.5l1.5,1.5L226.8,472.6z"/>
		<path class="st3" d="M303.6,500.4c0.2,0.3,0.4,0.6,0.5,1c0,0.1-0.3,0.3-0.5,0.5c-0.2-0.3-0.4-0.6-0.5-1
			C303.1,500.7,303.4,500.5,303.6,500.4z"/>
		<path class="st2" d="M289.5,256.6h-33.3c0-0.3,0-0.6,0-0.9h33.1C289.3,256,289.4,256.3,289.5,256.6z"/>
		<path class="st4" d="M303.8,180.8c-5.5,1.8-11.1,3.7-19,2.4C292.2,180.9,297.8,179.9,303.8,180.8z"/>
		<path class="st3" d="M416.8,101.1c-1.8-0.4-3.4-1.4-3.4-3.3c-0.1-1.8,1.3-3.4,3.2-3.5c0.2,0,0.4,0,0.6,0c2,0.1,3,1.7,2.9,3.5
			S418.6,100.8,416.8,101.1z"/>
		<path class="st1" d="M687.7,172.7c3.6,0.3,15.9,13.2,15.8,16.3c0,0.6-0.4,1.6-0.9,1.8c-1,0.3-2.1-0.1-2.5-1
			c-3.4-5.5-7.9-10.2-13.2-13.8c-0.9-0.5-1.2-1.6-0.7-2.5C686.4,173.1,687.3,172.9,687.7,172.7z"/>
		<path class="st1" d="M178.4,79.4c3.7,0.6,3.7,0.6,9.4,9.2c-5.1-0.1-5.7-0.7-9.3-9.4L178.4,79.4z"/>
		<path class="st3" d="M597.2,473.7c2.2-0.2,4.5-0.3,6.7-0.6c4.5-0.6,6.3,1.3,6.2,5.8c-0.8,22.5-1.6,45.1-2.4,67.6
			c0,0.4-0.6,0.7-1.5,1.8c0-8-0.2-15.3,0-22.6c0.4-13.4,1-26.8,1.4-40.1c0.3-10.7,0.3-10.7-10.4-10.2
			C597.2,474.8,597.2,474.3,597.2,473.7z"/>
		<path class="st4" d="M749.8,500.9c-0.2-16-0.3-16,15.7-21.9c2.7-1,5.4-3.7,9.6-1.1c-6.1,2.3-11.3,4.5-16.8,6.1
			c-4.7,1.4-7.2,3.3-6.2,8.7c0.5,2.8-0.2,5.9-0.4,8.8L749.8,500.9z"/>
		<path class="st4" d="M532.7,539.3c0.1,14.6,2.4,29.2,1.1,43.9c-3.2-14.5-2-29.2-3.4-43.8L532.7,539.3z"/>
		<path class="st4" d="M597.2,473.7v1.7c-11.7,1.9-23.6,2.8-35.5,2.9l-0.2-2L597.2,473.7z"/>
		<path class="st3" d="M530.1,527.2c-0.3-14.8-1.7-29.6,1.7-44.3c-1.2,14.7,0.2,29.4,0,44L530.1,527.2z"/>
		<path class="st5" d="M605.9,554.2c2.5,8.4,1.6,17,0.3,25.5C604,571.3,604.8,562.8,605.9,554.2z"/>
		<path class="st4" d="M616.6,445.1c2.6-4.3,7.4-3.2,11.1-3.6c6.6-0.8,12.9-4.8,19.8-2.2C637.5,442.5,627.1,444,616.6,445.1z"/>
		<path class="st5" d="M568.5,592.3h-24.8c8-3.3,16.4-2.1,24.7-2.5C568.5,590.6,568.5,591.5,568.5,592.3z"/>
		<path class="st4" d="M676.5,492.7l25.6-7.7c-7.6,5.6-16.5,7.4-25.2,9.7L676.5,492.7z"/>
		<path class="st4" d="M686.5,514.5c-7,4.4-14.7,5.6-22.5,6.5c-0.1-0.6-0.3-1.2-0.4-1.8L686.5,514.5z"/>
		<path class="st5" d="M533.3,478.2c8.2-3.9,16.1,1,24.2,0.3C549.5,479.1,541.3,480.2,533.3,478.2z"/>
		<path class="st4" d="M661.8,472.5c-7.1,1.8-14.1,3.9-21.5,2.8C647.3,473.4,654.3,471.1,661.8,472.5z"/>
		<path class="st4" d="M595.5,446.9v0.2c6.4-2,12.8-4.6,19.8-2C608.8,446.7,602.3,449.1,595.5,446.9z"/>
		<path class="st4" d="M749.8,500.9l2,0.6c3.6,3.1,2,7,1.5,10.7c-0.6,0.3-1.2,0.3-1.8,0.1C747.6,509,750.1,504.7,749.8,500.9z"/>
		<path class="st3" d="M591.3,588.1c-6.4,3.3-13.7,4.2-20.7,2.3L591.3,588.1z"/>
		<path class="st4" d="M660,552.7c-3.8,1.8-7.6,3.6-13,2.6C651.7,551.9,655.9,552.6,660,552.7z"/>
		<path class="st5" d="M530.1,527.2l1.8-0.2c1.5,4,1,8.2,0.8,12.4l-2.3,0.1C529.7,535.3,529.6,531.2,530.1,527.2z"/>
		<path class="st4" d="M776.8,507c-1.8,3.6-3.3,7.2-7.6,7.2c-0.4,0-0.8-1.1-1.2-1.7L776.8,507z"/>
		<path class="st4" d="M776,504.1c-2-2.2-0.9-4-0.7-5.7c0.9,0,1.6-0.2,1.7,0C778.4,500.2,778.1,502,776,504.1z"/>
		<path class="st4" d="M776.3,488.3c-0.1,1-0.1,2.1-1.4,2.1s-1.4-1.2-1.4-2.1s0-2.1,1.4-2.1S776.2,487.3,776.3,488.3z"/>
		<path class="st4" d="M765.8,514.6l-0.7,1.1c-0.2-0.4-0.5-0.8-0.5-1.2s0.4-0.7,0.6-1.1C765.4,513.8,765.6,514.2,765.8,514.6z"/>
		<path class="st4" d="M762.9,516l-0.7,1.1c-0.2-0.4-0.6-0.8-0.6-1.1s0.4-0.8,0.6-1.1L762.9,516z"/>
		<path class="st4" d="M758.4,517.5l-0.7,1.1c-0.2-0.4-0.6-0.8-0.6-1.1s0.4-0.7,0.6-1.1C757.9,516.8,758.2,517.2,758.4,517.5z"/>
		<polygon class="st4" points="663.9,551.8 664.5,551.8 664.5,552 		"/>
		<path class="st3" d="M280.1,805c11.1,1.6,22.2,3.4,33.3,5.2C301.8,811.6,291,808.2,280.1,805z"/>
		<path class="st3" d="M257.9,799.2c-11.4-0.9-4-9.9-6.4-14.7C255.6,788.7,251.1,796.3,257.9,799.2L257.9,799.2z"/>
		<path class="st3" d="M304,781c2.5-4.5,5.9-3.7,9.5-1.6l-0.9,1c-2.9-1.3-5.5-0.3-7.9,1.3C304.5,781.5,304.3,781.2,304,781z"/>
		<path class="st3" d="M304.2,790.3c-2.7-3-2.5-6.1-0.2-9.3l0.8,0.7c-0.6,2.6-0.5,5.3,0.4,7.8C304.8,789.7,304.5,790,304.2,790.3z"
			/>
		<path class="st3" d="M315.1,780.9c2.1,2.7,2,5.3-0.1,8l-1.1-1c0.9-1.9,1-4.2,0.2-6.2L315.1,780.9z"/>
		<path class="st3" d="M312,791.9c-2.1,2-4.2,2.2-6.3-0.1c0.3-0.3,0.6-0.7,0.9-1c1.4,0.8,3.1,0.8,4.4,0L312,791.9z"/>
		<path class="st3" d="M315,788.9c-0.3,1.5-1.5,2.7-3,3l-1-1.1c1-1,2-1.9,3-2.9L315,788.9z"/>
		<path class="st3" d="M257.8,799.2l0.9,0.3c-0.1-0.1-0.1-0.3-0.2-0.3C258.3,799.2,258.1,799.2,257.8,799.2L257.8,799.2z"/>
		<path class="st3" d="M313.6,779.4l1.5,1.5l-1,0.9l-1.4-1.4L313.6,779.4z"/>
		<path class="st3" d="M305.7,791.8l-1.4-1.5c0.3-0.3,0.6-0.6,0.9-0.8l1.4,1.3C306.2,791.2,306,791.5,305.7,791.8z"/>
		<path class="st3" d="M428.6,541.9c2.7,4.3,2,8-2.1,10.9c-3.3,2.3-6.8,1.7-9.4-1.2c-2.9-3.2-3.1-6.6,0.5-9.6l0.8,0.8
			c-0.8,2.8-2.1,5.8,1,7.9c1.9,1.3,4.4,1.3,6.2-0.1c2.9-2,2.9-4.8,1.8-7.8L428.6,541.9z"/>
		<path class="st3" d="M428.9,590.6c-0.9,2.9-2.4,5.5-4.5,7.8c-0.3-0.4-0.6-0.9-0.9-1.3c1.2-2.6,2.2-5.4,4.5-7.3L428.9,590.6z"/>
		<path class="st3" d="M450.6,557c0.6-1.8,1-3.7,3.5-4c0.2,2.3-1.4,3.5-2.7,4.7C451.1,557.4,450.8,557.2,450.6,557z"/>
		<path class="st3" d="M419.2,540.5c2.6-2.4,5.3-2.2,8-0.2l-1,1.1c-2-0.9-4.2-0.9-6.1,0.1L419.2,540.5z"/>
		<path class="st3" d="M431,585.3c0.5-1.3,1.2-3.5,2.5-2.5s-0.8,2.3-1.5,3.4L431,585.3z"/>
		<path class="st3" d="M437.4,579.9c-0.7,0.5-1.4,0.8-2.1,1.1c-0.8,0.2-1.1-0.6-0.7-1.2c0.6-0.7,1.2-1.3,1.9-1.9
			C436.6,578.2,436.8,578.6,437.4,579.9z"/>
		<path class="st3" d="M439,573.3c0.5,0.5,1.1,0.9,1.1,1c-0.5,0.8-1.1,1.5-1.7,2.3c-0.3-0.3-0.9-0.6-0.9-0.7
			C437.9,575,438.4,574.2,439,573.3z"/>
		<path class="st3" d="M443.4,569.2c-0.4,1.3-1.1,3.6-2.4,2.6s0.7-2.3,1.5-3.3L443.4,569.2z"/>
		<path class="st3" d="M448.8,559.6c0.2-1.1,0.5-2.2,1.8-2.6c0.3,0.2,0.5,0.4,0.8,0.6l-1.9,2.7C449.2,560.1,449,559.9,448.8,559.6z"
			/>
		<path class="st3" d="M448.3,562.2l-1.8,2.6c-0.3-0.3-0.5-0.5-0.8-0.8l1.8-2.6C447.7,561.7,448,561.9,448.3,562.2z"/>
		<path class="st3" d="M442.5,568.5l1.9-2.7c0.3,0.2,0.5,0.5,0.7,0.8c-0.2,1.1-0.5,2.2-1.8,2.6L442.5,568.5z"/>
		<path class="st3" d="M432,586.2l-1.9,2.6c-0.3-0.3-0.6-0.6-0.9-0.9l1.8-2.7C431.4,585.6,431.7,585.9,432,586.2z"/>
		<path class="st3" d="M417.6,542l1.5-1.5c0.3,0.3,0.6,0.7,0.9,1l-1.6,1.2C418.2,542.5,417.9,542.3,417.6,542z"/>
		<path class="st3" d="M427.1,540.3l1.5,1.5l-1,0.9l-1.4-1.4L427.1,540.3z"/>
		<path class="st3" d="M447.5,561.4l1.3-1.8c0.2,0.3,0.4,0.5,0.7,0.7l-1.2,1.8C448,561.9,447.7,561.7,447.5,561.4z"/>
		<path class="st3" d="M428,589.8l1.2-1.8c0.3,0.3,0.6,0.6,0.9,0.9l-1.2,1.8L428,589.8z"/>
		<path class="st3" d="M424.4,598.4c-1,1.2-1.9,1-2.7-0.2c0.3-0.3,0.5-0.7,0.8-1c0.3-0.1,0.7-0.1,1-0.1
			C423.8,597.5,424.1,598,424.4,598.4z"/>
		<path class="st3" d="M446.5,564.8l-1.3,1.8c-0.2-0.3-0.5-0.5-0.7-0.8l1.2-1.8C445.9,564.3,446.2,564.5,446.5,564.8z"/>
	</g>
</g>
<path class="st8" d="M387.8,53.6c5.9-0.8,29.9-4.8,43.3-0.8c10.2,4.8,45.5,8.3,45.5,8.3s-3.6-9.3-12.2-13c-2.5-1.1-4.1-3.3-4.7-5.9
	c-0.7-3.4-2.4-6.3-4.1-8.5c-2-2.7-5.2-4.3-8.6-4.5c0,0-23.8,1.6-35-4.1c-5.3-5.4-8.3,4.4-19.5,2.1c-3-0.6-6.2,0.8-7.6,3.6
	C380.4,39.9,382.9,54.3,387.8,53.6z"/>
<path class="st9" d="M624.3,223.8c0,0,29.1,20.9,36.6,16.4c9.3-12-18.8-31.6-18.8-31.6L624.3,223.8z"/>
</svg>
