<svg xmlns="http://www.w3.org/2000/svg" xmlns:xlink="http://www.w3.org/1999/xlink" viewBox="0 0 1022.35 928.39"><defs><style>.cls-1{fill:url(#linear-gradient);}</style><linearGradient id="linear-gradient" x1="212.47" y1="1040.17" x2="1348.07" y2="-1843.89" gradientTransform="matrix(1, 0, 0, -1, 0, 853.9)" gradientUnits="userSpaceOnUse"><stop offset="0" stop-color="#48b3ca"/><stop offset="0.12" stop-color="#48accc"/><stop offset="0.31" stop-color="#4a97d0"/><stop offset="0.54" stop-color="#4c76d7"/><stop offset="0.79" stop-color="#4f47e1"/><stop offset="1" stop-color="#521cea"/></linearGradient></defs><g id="Layer_2" data-name="Layer 2"><g id="Layer_1-2" data-name="Layer 1"><path class="cls-1" d="M366.55,168.65C313.24,260.07,141.18,287.87,81.26,334.76,26.44,377.69-2.76,477,.2,556.09s63.06,157.83,142,164.43c34.33,2.86,68.68-7.28,103-4.94,110,7.51,171.3,130.9,268,183.82,111.49,61,253.57,17.86,356.72-56.35,65.6-47.19,124.64-109.8,145.54-187.86s-6.2-172.6-77.33-210.94c-64.09-34.55-161.72-29.48-186.67-97.87-17.47-47.82,16.59-97.81,24.24-148.14,12-78.86-48-157.35-124.05-181.46S506-11.49,449.94,45.3C423.8,71.78,385.31,136.49,366.55,168.65Z"/></g></g></svg>