<?xml version="1.0" encoding="utf-8"?>
<!-- Generator: Adobe Illustrator 22.1.0, SVG Export Plug-In . SVG Version: 6.00 Build 0)  -->
<svg version="1.1" id="Layer_1" xmlns="http://www.w3.org/2000/svg" xmlns:xlink="http://www.w3.org/1999/xlink" x="0px" y="0px"
	 viewBox="0 0 882.5 858.7" style="enable-background:new 0 0 882.5 858.7;" xml:space="preserve">
<style type="text/css">
	.st0{fill:#FFFFFF;}
	.st1{fill:#474747;}
	.st2{fill:url(#SVGID_1_);}
	.st3{fill:url(#SVGID_2_);}
	.st4{fill:url(#SVGID_3_);}
	.st5{fill:url(#SVGID_4_);}
	.st6{fill:url(#SVGID_5_);}
	.st7{fill:url(#SVGID_6_);}
</style>
<g id="Layer_2_1_">
	<g id="Layer_1-2">
		<path class="st0" d="M580.5,444.5c34.1,71.9,68.2,143.9,102.2,215.8c8.4,17.8,19.6,34.2,25.5,53.2c5,16.1,1,24.1-15.3,28.2
			c-8,2-12.9,4.8-15.6,13.4c-3.6,11.7-14.1,17.8-25,22c-30.3,11.5-61.4,20.2-92.5,29c-50.7,14.3-101.8,27.1-154.4,32.2
			c-27.1,2.6-54,2-80.6-4.3c-6.9-1.6-13-1.5-17.3,4.7c-13.8,19.8-34.6,22.3-57.5,14c-1.7-0.6-3.3-1.2-4.9-2
			c-6.5-3.2-11.7-7.2-17.8,2.5c-5.3,8.4-18,6.7-26.5-1.6c-7.1-6.9-11.6-15.5-16-24.2c-19.7-38.6-35.2-78.8-48.2-120.1
			c-20.3-64.5-38.2-129.7-59.5-193.9c-1-3.1-2.2-6.1-3.3-9.1c-0.3-1.2-0.7-2.5-1-3.7l-1.8-4.8c-1-7.6-4-14.5-6.7-21.6L8.3,296.8
			C6.5,291.2,5.1,285.5,3,280c-9.4-24.3,4-50.8,32.4-59.6c-7.8-31.1,1.3-55.1,25.6-67.7c35.4-18.3,78.3,8.4,77,48.1
			c-0.2,6,1.5,7.3,6.7,5.9c0.9-0.2,1.7-0.3,2.6-0.4c6.4-0.9,14.4,0.2,18.7-3.3s-0.7-11.3-0.6-17.3c0.2-26.3,22-50.1,48.2-52.2
			c28.6-2.2,53.9,17.8,57.7,45.7c0.4,3.2,0.5,6.4,0.8,10.5c11-1.5,22-3.1,33.1-4.3c6.6-0.7,3.4-4.9,2.9-7.7
			c-3.8-24.4,6.6-46.3,27.4-57.1c28.7-14.9,63.3-1.5,74.5,29.3c1.9,5.3,2.9,6.1,8.1,3.2c7.6-4.3,16-7.2,24.1-10.6
			c24.1-10.3,44.4-26.3,64.6-42.5c9.9-7.9,19.6-15.9,29.7-23.5s21.7-10.6,34.2-8.3c4.4,0.8,6.9-0.4,9.9-3.2
			c15.2-13.8,32-20.9,52.2-11c2.3,1.1,4.3,0.8,6.6-0.5c16.3-9.6,32-6.8,47.4,2.3l-4.6,1.2c-4.2-1.2-8.3-2.7-12.6-3.7
			c-9.5-2.1-18.7-1.3-27.3,3.6c-2.4,1.3-4.9,2.4-2.9,5.9c0.7,1.1,1.9,2.6-0.2,3.6c-1.8,0.8-2.7-0.7-3.4-1.9
			c-5.4-10.8-15.4-11-25.1-10.2c-12.2,1-21.3,8.4-29.9,16.5c2.6,3.5,8,4.1,6.9,9.7c-20.5-12.2-34.4-11.3-53.6,3.1
			c-4.5,3.3-8.8,6.9-13.1,10.4c-29.4,24.5-59.3,48.2-96.4,60.4c-4.8,1.6-9,4.5-12.3,8.4c-3,3.6-5.3,7.5-4.1,13.1
			c2.8-1.1,4.9-1.9,7-2.8c36.5-15.5,72.9-31,109.4-46.4c35.9-15.2,71.9-30.3,107.8-45.4l0.4,3.3c-0.4,0.4-0.9,0.8-1.4,1.1
			c-70.7,30.8-142.5,59.4-212.7,91.5c-15.5,7.1-31.7,12.9-48.3,19.7c3.2,2.7,6.4,4.2,7.3,6.5c3.5,8.5,8.4,5.7,14.4,3.1
			c54.5-23.3,109.2-46.5,163.8-69.7c53.8-22.9,107.5-45.8,161.3-68.7c3.8-1.6,7.3-2.8,5.2-7.9l3.3-0.4c10.3,22.2,20,44.6,28.6,67.4
			l-3.3,0.5c-1.2-2.4-2.7-4.6-3.4-7.1c-2.2-8.6-5.9-9.4-14.2-5.8c-66,28.5-132.2,56.4-198.4,84.6c-3.5,1.5-7,3.2-11.1,5
			c7,4.6,13,8.3,18.6,12.5c4,3.1,7.2,3,11.8,1c31.5-13.7,63.1-27.1,94.7-40.4c31.9-13.4,63.8-26.7,95.7-40.1l3.1,2
			c-35.3,15.2-70.5,30.5-105.9,45.4c-6.8,2.9-10.2,5.9-10.8,14.4c-2.6,36.7-26.7,46-55.3,38.8c-12.6-3.3-24.3-9-34.7-16.9
			c-14.3-10.8-30-18.6-48-20.6s-35.3-0.3-50.4,10.6c-10.8,7.8-9.9,14.8,2.4,19.4c13.5,5,27.2,9.5,40.8,13.9
			c18.2,5.9,34.2,15.3,47.6,29.2c10.3,10.7,22.8,18.4,36.4,24.5c26.2,11.8,53.9,17.9,82.2,16.6c44.6-2,81.8,12,113.2,43.3
			c14.9,14.9,27.7,15.7,44.6,3c38-28.5,55.7-66.3,51.7-114c-1.5-18.3-8.2-31.7-26.5-39.7c-29.5-12.8-49.6-36.8-68-62.3l1.8-2.7
			c10.8,12,20.3,25,32.1,36.2c9.9,9.4,20,18.9,32.8,23.4c26.8,9.4,32.7,30.5,32.9,55.1c0.5,44.3-17.9,79.4-52.8,106.3
			c-19.7,15.2-34.5,14.4-52.3-2.9c-28.8-27.9-62.2-42.3-103.2-41.2c-40.8,1.1-80.1-7-114.6-31.1c-8-5.6-14.7-12.7-21.8-19.2
			c-9.5-8.6-20.6-14.1-34.3-19.1c22.4,52.9,49,101.9,72.1,152.5l-4.3,0.5c-23.4-48-47.4-95.8-69-144.6c-2.2-5.1-3.9-5.8-8.8-3.6
			c-22.8,10.1-45.8,19.9-68.7,29.7c-10,4.3-20,8.6-31.2,8.7c-31.1,0.4-62.3,0.8-93.4,1.2c-5.3,0.1-10.9,0.5-13.5-5.8
			s1.5-9.9,5.4-13.7c20.5-20.6,41-41.3,61.5-62c7.5-7.6,15.7-14,25.8-18c8.5-3.4,16.9-7.3,27.6-12c-8.3-1.2-16.7-1.2-25-0.2
			c-29.8,3.7-59.5,7.7-89.2,11.6c-7,0.9-10.3,5.8-8.1,12.6c1.3,4,2.6,7.8,2,12c-0.8,5.1-3.6,8.1-9,7.3c-8.6-1.3-15.3-16.1-10.5-23.5
			c2.1-3.2,4.9-4.9,9-3.6c1.4,0.5,2.8,2.6,4.4,0.6c0.6-0.7,0.9-1.6,0.7-2.4c-1-2.3-3-1.1-4.6-0.9c-40.2,5.3-80.5,10.6-120.7,16
			c-6.1,0.8-7,3.6-3.3,8.2c3.1,4,4.8,8.9,4.6,13.9c0,3.4-1,6.5-4.2,8.2c-3.6,1.9-6.8,0.5-9.8-1.7c-10.5-8-9.2-21.3,3-26.9
			c-20.3,0.4-39.7,5.5-59.6,6.3c-4.3-0.6-6.9,0.7-5.9,5.7c-5.9-0.1-11.8,0.4-17.6-0.3c-28-3.3-52.2,24.3-40.6,55.5
			C16.5,305,23.2,329.7,31,354c12.8,40,25.7,80,38.6,119.9l10.1,31.3c0.3,2,0,4.2,2.1,5.5l-0.2,0.2c0.7,2.9,1.2,5.8,2.1,8.6
			c19.1,57.8,35.4,116.4,53.2,174.5C151.7,742,169.3,789,193,833.5c3.7,7,7.8,13.9,14.9,18.2c7.4,4.5,18,2,19.1-5.4
			c1.3-9,4.7-7.2,10-4.1c2.6,1.4,5.3,2.7,8,3.7c27.7,12,39.3,9.8,60.2-11.5c5-5.1,10.5-6.8,17.5-5.3c7.8,1.7,15.6,3.1,23.4,4.1
			c40.5,4.9,80.3-0.5,119.9-8.7c51.9-10.7,102.7-25.1,153.2-41c13.4-4.2,27.3-7.1,39.5-14.6c8.7-5.4,15.6-12.2,17.2-23
			c-1-0.3-1.5-0.7-2-0.6c-48.4,8-96.9,16-145.3,23.9c-58.6,9.5-117.8,15.6-177.1,18.2c-17.4,0.8-31.8-5.2-39.6-22.3
			c-4.5-9.9-7.4-20.3-11-30.5c-20.4-57.6-41.2-115-61.8-172.6c-7.9-22-15.6-44.1-23.4-66.1l3.3-0.4c7.5,20.3,15.1,40.5,22.5,60.8
			c18.9,51.9,37.3,103.9,56.6,155.6c6.5,17.5,8.8,36.3,18.4,52.8c5.9,10.2,13.7,16.3,25.5,17.8c13.6,1.7,27,0,40.4-1
			c53.6-4.2,107.1-9.5,160.1-18.7c41.1-7.2,82.3-13.5,123.5-20.4c9.6-1.6,19.1-3.4,28.5-5.8s12.2-7.4,10.7-17
			c-1.1-7.4-4-14.2-7.4-20.7c-22.1-41.8-41.6-84.9-61.9-127.5c-20-42.1-39.7-84.5-59.5-126.7C577.8,444.8,579.1,444.6,580.5,444.5z
			 M441.4,234.6c-13.2-11.4-12.7-19.1,1.5-28.6c2.7-1.8,5.5-3.3,8.5-4.6c19.3-8.2,38.9-8.2,58.6-2c5.5,2,11.5,1.7,16.8-0.9
			c18.3-8.1,36.7-15.7,55.1-23.5c50.8-21.6,101.6-43.2,152.5-64.8c5.5-2.3,8.1-4.2,4.5-10.6c-4.1-7.8-7.6-15.9-10.4-24.3
			c-1.9-5.4-4.4-5.7-9.1-3.7c-110.5,47.2-221.1,94.2-331.6,141.1c-6.5,2.8-7.7,7.5-8.5,13c-0.8,5.6,2.3,9.5,7.3,11.9
			c5.4,2.6,10.5,5.6,12,12c0.8,3.3,2.7,2.2,4.7,1.3C415.8,245.5,428.4,240.1,441.4,234.6z M402.4,282.2
			c-10.1-5.8-12.5-13.6-8.6-23.5c2.8-7.2,0.4-12.4-6.3-16.1c-13.3-7.4-14.5-10.1-10.6-24.6c1.5-5.7,0.9-10.6-4-14.1
			c-4.6-3.3-9.4-5.4-15.3-1.6c-4.8,2.9-9.2,6.3-13.2,10.1c-12.8,13-25.6,25.9-38.4,38.9c-13.8,14-13.5,13.9-5.9,32.2
			c2,4.9,4.6,6.3,9.8,6.2c21.1-0.6,42.2-1.2,63.3-1C383.2,288.9,392.4,287.5,402.4,282.2L402.4,282.2z M87,214.2
			c13.4-1.8,26.8-3.7,40.2-5.3c4.2-0.5,6.1-1.8,6.3-6.4c0.9-19.3-9.7-37.3-26.9-46.1c-17.1-8.5-38.5-6-52.9,6.2
			c-14.7,12.5-20.8,32.5-15.4,51c1.6,5.3,3.8,6.8,9.3,5.9C60.8,217.5,74,216,87,214.2L87,214.2z M353.7,119.7
			c-26.7,3.5-45.4,28-41.9,54.7c0.1,0.6,0.2,1.2,0.3,1.8c1,6.2,3.2,8.1,9.8,7.2c25.2-3.5,50.4-8.8,76.1-4.8c1.7,0.3,4.7,0.5,4.6-1.1
			c-0.4-8.4,7.1-15.3,4-24.4C399.1,130.9,376.9,116.6,353.7,119.7L353.7,119.7z M219.4,196.7c14-1.9,28-3.8,42-5.5
			c3.6-0.4,6-1.2,5.7-5.8c-1.2-19.6-10.1-34.4-27.9-42.8s-35.1-6.3-50.6,5.8s-20.8,28.6-17.8,47.9c0.8,4.8,2.8,6.8,8.3,5.9
			C192.5,200,206,198.6,219.4,196.7L219.4,196.7z M484,247.7c-11.6-3.7-21.6-6.7-31.6-10.1c-3.4-1.2-6.3-0.6-9.3,0.7
			c-13.5,5.8-27,11.5-40.5,17.4c-7.3,3.1-7.8,9.4-5.4,15.4s7.5,10.3,14.6,7.4c23.6-9.7,46.9-19.8,72.2-30.6L484,247.7z M627.4,191.7
			l-74.7,31.4c7.6,4.4,15.8,7.7,24.4,9.9C605.5,239.8,628.7,229.5,627.4,191.7z"/>
		<path class="st0" d="M633,84.6l-0.4-3.3c15.2-6.6,30.4-13.1,45.5-19.9c1.6-0.7,6.4,0.3,4.1-4.5l4.6-1.2c3.4,0.7,6.3-0.8,9.3-2.1
			c38.6-16.5,77-33.2,115.8-49.3c23.1-9.6,47.1-2.8,61.2,16.5c13.4,18.5,12.5,43.8-2.3,61.2c-5.3,6.3-12.1,11.3-19.7,14.5
			c-25.9,11.1-51.8,22.1-77.7,33.1c-9.8,4.1-9.9,4-4,12.8l-1.8,2.7c-4.7-7.9-10.7-11.2-19.3-5.7l-3.1-2c3-2.7,10.4-2.6,6.1-9.7
			l3.3-0.5c2.8,6.7,6.9,2.5,10.7,1.2c4.4-1.4,2.8-4,1.6-6.9c-10.5-24.6-21.2-49.1-31.3-73.8c-2.2-5.2-4.4-4.6-8.6-2.9
			c-4.6,1.8-6,3.9-3.5,8.4c1,2.1,1.8,4.3,2.5,6.5l-3.3,0.4c-5.7-11.2-5.6-11.1-17.7-6C680.9,64.4,657,74.5,633,84.6z M793.9,113.6
			c-0.3-0.8-0.3-1-0.4-1.3c-11-25.9-22-51.8-33-77.7c-2-4.7-4.8-1.5-7.2-0.8c-3.3,1-3.6,2.8-2.1,6c3.9,8.5,7.4,17.2,11.1,25.9
			c7,16.4,13.9,32.9,20.9,49.3c1,2.4,1.8,5.7,5.4,3.5C790.6,117.2,795,117.7,793.9,113.6L793.9,113.6z"/>
		<path class="st0" d="M580.5,444.5l-4,0.4c-4.5-7.5-8.2-15.4-11.1-23.6l3.3-0.3C574,428.1,576.6,436.6,580.5,444.5z"/>
		<path class="st0" d="M568.7,421l-3.3,0.3l-1.1-1.6c1.3-3.8-4.4-3.3-4-6.6l-4.2-10.3l4.3-0.5C564.2,408,567,414.3,568.7,421z"/>
		<path class="st0" d="M687.3,346.4l0.2-0.3C687.5,346.1,687.4,346.4,687.3,346.4L687.3,346.4z"/>
		<path class="st1" d="M762.4,468.3l0.1-0.4c0,0.1,0,0.2,0,0.3L762.4,468.3z"/>
		<path class="st0" d="M199.5,452c-15.1-40.8-30-81.6-45.4-122.3c-7-18.4-15.1-36.4-24-53.9c-13.6-27-33-46.3-64.5-50
			c-1-5,1.5-6.3,5.9-5.7c-0.5,1-2.6,2.5,0.3,2.9c34.8,5.2,52.2,29.9,66,58.7c22.1,46.1,38.2,94.6,55.7,142.5
			c3.3,9,7.6,17.8,9.2,27.5C201.6,451.8,200.6,451.9,199.5,452z"/>
		<path class="st0" d="M199.5,452l3.1-0.3c6.8,14.2,11.4,29.2,16.4,44.1l-3.3,0.4c-0.3,0.1-0.7,0-0.9-0.2c-4.6-13.7-9-27.5-15-40.6
			C199.7,454.3,199.6,453.2,199.5,452z"/>
		<path class="st0" d="M79.7,505.3c2.1,1.3,2.2,3.3,2.1,5.5C79.7,509.4,80,507.2,79.7,505.3z"/>
		
			<linearGradient id="SVGID_1_" gradientUnits="userSpaceOnUse" x1="174.0113" y1="496.3687" x2="420.0213" y2="743.2587" gradientTransform="matrix(1 0 0 1 0 -208.02)">
			<stop  offset="0" style="stop-color:#48B3CA"/>
			<stop  offset="0.12" style="stop-color:#48ACCC"/>
			<stop  offset="0.31" style="stop-color:#4A97D0"/>
			<stop  offset="0.54" style="stop-color:#4C76D7"/>
			<stop  offset="0.79" style="stop-color:#4F47E1"/>
			<stop  offset="1" style="stop-color:#521CEA"/>
		</linearGradient>
		<path class="st2" d="M269.5,320.6c7.8,18.8,15,36.3,22.4,53.8c1.7,4.1,0.5,6.1-3.6,6.9c-25.7,4.7-51.5,9.4-77.2,14.2
			c-3.6,0.7-5.2-0.5-6.5-3.8c-9.3-22.9-18.7-45.7-28.3-68.4c-1.9-4.5-0.2-5.7,3.7-6.5c25.7-4.9,51.4-9.8,77.1-14.7
			c2.2-0.4,4.5-0.7,5.3,1.7c1.4,4.5,6.1,8.4,3,13.9c-5.2,9.2-10.6,18.3-15.6,27.7c-2,3.7-3.7,3.3-6.8,1.5
			c-6.1-3.5-12.7-6.2-19.6-7.8c-1.4-0.4-3.1-0.8-3.7,1c-0.6,1.7,0.6,2.9,2.1,3.3c8.5,2.3,16.7,5.9,24.1,10.7c3.4,2.2,4.6-0.6,5.9-3
			c4.2-7.5,8.3-14.9,12.5-22.3C265.8,326.3,267.4,324,269.5,320.6z"/>
		
			<linearGradient id="SVGID_2_" gradientUnits="userSpaceOnUse" x1="299.9647" y1="839.6127" x2="588.2247" y2="1026.6527" gradientTransform="matrix(1 0 0 1 0 -208.02)">
			<stop  offset="0" style="stop-color:#48B3CA"/>
			<stop  offset="0.12" style="stop-color:#48ACCC"/>
			<stop  offset="0.31" style="stop-color:#4A97D0"/>
			<stop  offset="0.54" style="stop-color:#4C76D7"/>
			<stop  offset="0.79" style="stop-color:#4F47E1"/>
			<stop  offset="1" style="stop-color:#521CEA"/>
		</linearGradient>
		<path class="st3" d="M357.7,725.3c-11.8,2.3-11.7,2.3-19.7-17.3c-7.1-17.4-14-34.8-21.6-52c-2.6-5.8-1.3-7.3,4.6-8.4
			c24.5-4.5,48.9-9.4,73.4-14.2c4.2-0.8,7-0.6,9,4.2c9,22.6,18.3,45.1,27.9,67.5c2.4,5.6,0,6.5-4.5,7.3
			C406.8,715.9,386.9,719.7,357.7,725.3z M380.5,687.6c-8.8-7.2-16.9-13.9-25-20.5c-1.5-1.2-3.2-3.5-5.1-1c-1.7,2.3,0.5,3.7,2,5
			c8.4,6.9,16.8,13.7,25.1,20.8c3.9,3.3,6.1,2.3,7.7-2.1c3.7-10.2,7.4-20.4,11.1-30.6c0.7-2,2.6-4.8-0.7-5.8c-2.4-0.7-3.1,2.1-3.8,4
			C388.1,667.1,384.5,676.9,380.5,687.6L380.5,687.6z"/>
		<path class="st0" d="M330,330.4c18.1,5.2,33-1.4,48.8-7.6c-4.1-4.5-11.8-7.2-5.5-14.4c4.1-4.7,17.7-9.1,21-6.3
			c6.8,5.8-1.5,10.1-2.4,15.6c13.5,0.2,25.4-4.7,37.3-9.3c10.1-3.9,20-8.6,30.7-10.9c1.4-0.3,2.9-1.3,3.9,0.4s-0.4,2.8-1.8,3.1
			c-21.5,5-40.4,18.1-62.5,20.5c-8.9,0.9-16.7,3-24.6,7.4c-12.5,6.9-26.9,9.2-40.9,6.5c-5.2-0.9-9.4-0.4-14,2.5
			c-6.4,4.1-13.7,6.7-21.7,5.6c-1.3-0.2-3.2,0-3.2-2.1s1.8-2.1,3.2-2c4.1,0.4,8.3-0.2,12.1-1.7c4.9-2,12.4-1.9,4.9-10.5
			c-4-4.6-1-10.4,3.3-14c4.9-4.1,10-8.9,17.3-5.6c3,1.4,3.6,4.1,2.7,7.5C336.8,320.5,334,325.2,330,330.4z M334.4,311.8
			c-0.1-0.8-1.7-1.3-4-0.9c-5.9,0.9-13.6,8.1-12.7,12.5c0.5,3.3,3.4,5.8,6.7,5.7C327.1,329.2,334.8,317.1,334.4,311.8L334.4,311.8z
			 M387.5,305.6c-2.2,0.9-4.4,1.6-6.5,2.7c-2.3,1.1-5.1,2.1-5.7,5c-0.4,2.1,1.6,2.9,3.3,3.5c3.2,1.1,6.3,1.6,8.8-1.5
			c1.3-1.6,2.5-3.3,3.7-4.9c0.9-1.2,1.7-2.9,0.5-4C390.8,305.5,389,305.8,387.5,305.6L387.5,305.6z"/>
		<path class="st0" d="M536.4,469.9c-12.3,5.9-24.8,11.3-37.1,17.2c-12.2,6-25.4,9.6-38.9,10.6c-9.2,0.6-17.7,4.2-26.7,5.6
			c-10,1.5-19.6,1.4-28.8,8c-7.1,5.1-17,2.8-25.3-1.4c-1.5-0.8-3.4-1.5-2-4.4c2.9-0.7,5.1,1.6,7.8,2.4c8.3,2.5,16.2,2.3,23.5-3
			c3.3-2.4,5.9-5,2.3-9.2c-0.7-1-1.1-2.1-1.1-3.3c-0.1-4.1,0.9-8.2,5.9-8.2c4.7,0.1,5.7,4.1,4.7,7.8c-2,7,1.3,9.8,7.3,8.1
			c25.1-7,52.1-6.1,75.6-19.3C513.7,475.1,524.3,470.4,536.4,469.9z"/>
		<path class="st0" d="M458.3,635.1c1.8-4.8,5.4-6.2,9.6-4.1c4.1,2,4.7,6.5,2.7,9.9c-3.6,6.3-0.5,6.4,4.5,6.5
			c15.3,0.1,28.4-4.9,38.5-17.1c2.2,11,6,14,17.9,14.6c16.4,0.8,32-3.1,47.2-8.8c7.4-2.8,14.9-5.3,22.4-7.7
			c2.6-0.8,5.4-1.7,10.5,1.6c-13.8,2.7-24.7,7.1-35.7,11.3c-14.5,5.6-30,8.2-45.6,7.6c-5.1-0.2-10.5-0.9-14.1-4.3
			c-4.5-4.3-7.5-4-12.5-0.7c-9.9,6.6-21.9,9.1-33.7,7.2c-3.9-0.8-8,0.2-11.2,2.7c-7.6,5.6-13.1,5.2-19.7-0.3
			c5.1-1.9,10.2,1.5,15.3-1.4c4.8-2.8,3.7-4.8,1.3-7.8c5.3,0.2,11.9,1.2,11.3-6.9C466.6,630.7,461.1,636.8,458.3,635.1z"/>
		<path class="st0" d="M314.8,358.9c2.5-3.3,4.2-2.3,5.9-2.2c3.5,0.2,7.1-0.6,10.5-0.1c9.4,1.5,11.9-13.6,21.5-9.3
			c9.2,4.1,17.8,1.2,26.6,0.1c8.7-1.1,17.4-2.9,25.9-5.2c12.8-3.3,25.3-7.3,38-10.9c3.3-0.9,6.4-3.2,10-1.7c0.8,3.2-1.6,3.2-3.5,3.9
			c-27,9.4-54.4,16.8-82.9,19.8c-4.9,0.5-10,1.6-14.6-1.4c-3.9-2.5-5.2,1.4-7.2,2.9C335.8,361.5,326.3,363.4,314.8,358.9z"/>
		<path class="st0" d="M540.4,676.3l74.8-12.7l0.6,3.3c-24.7,5.8-49.7,9.5-75,12.4C540.7,678.3,540.6,677.3,540.4,676.3z"/>
		<path class="st0" d="M390.9,466.9c2.5-4.2,7.3-6.9,7.5-12.5c0.1-2,1.6-3.1,3.8-2.1c1.2,0.5,2.5,0.5,2.2,2.8
			c-0.8,4.8,2.5,5.1,6,4.9c8.2-0.4,16.4-0.8,24.6-1.2c0.1,0.9,0.2,1.8,0.4,2.8c-10.7,1.3-21.2,5.3-32.1,1.6c-5.6-1.9-5.9,5-9.8,5.7
			L390.9,466.9z"/>
		
			<linearGradient id="SVGID_3_" gradientUnits="userSpaceOnUse" x1="236.8056" y1="653.4933" x2="507.8957" y2="907.8633" gradientTransform="matrix(1 0 0 1 0 -208.02)">
			<stop  offset="0" style="stop-color:#48B3CA"/>
			<stop  offset="0.12" style="stop-color:#48ACCC"/>
			<stop  offset="0.31" style="stop-color:#4A97D0"/>
			<stop  offset="0.54" style="stop-color:#4C76D7"/>
			<stop  offset="0.79" style="stop-color:#4F47E1"/>
			<stop  offset="1" style="stop-color:#521CEA"/>
		</linearGradient>
		<path class="st4" d="M268.2,474.6c2.5-1.2,5.3-1.7,8-1.3c2.2,11.3,8.1,15.9,18,13.6c2.5-0.6,6.4-0.8,6.5-4.7
			c0.1-3.5-0.6-7.2-5.5-7.5c-2.7-0.2-4.2-1.8-4.8-4.3l13.5-2.9c2.9,16.6,2.9,16.6,14.6,15c-4.2,10.2-8.7,20.4-12.7,30.7
			c-1.5,3.9-3.3,4-6.5,2c-4-2.5-8.2-4.6-12.3-6.8c-1.9-1-4.4-3.3-6-0.3c-1.3,2.3,1.4,3.4,3.2,4.4c5.6,3.1,11.4,6.1,17,9.3
			c3.7,2.1,6,1,7.6-2.7c5.4-12.4,10.8-24.7,16-37.1c1.2-2.9,2.3-6-3.1-5.2c-3.9-3.1-2-7.8-3.4-11.6c2-0.6,4-1.1,5.9-1.8
			c6.1-2.2,9.1-0.5,11.6,6c8.3,21.3,17.3,42.4,26.4,63.3c2.6,6.1,1.3,8-5,9.1c-24.5,4.4-49,9.1-73.5,13.8c-3.9,0.8-6.5,0.7-8.2-3.8
			c-7.9-20.2-16.2-40.2-24.3-60.3C262.9,489.4,267.2,485,268.2,474.6z"/>
		
			<linearGradient id="SVGID_4_" gradientUnits="userSpaceOnUse" x1="244.8033" y1="649.7662" x2="494.7833" y2="861.8862" gradientTransform="matrix(1 0 0 1 0 -208.02)">
			<stop  offset="0" style="stop-color:#48B3CA"/>
			<stop  offset="0.12" style="stop-color:#48ACCC"/>
			<stop  offset="0.31" style="stop-color:#4A97D0"/>
			<stop  offset="0.54" style="stop-color:#4C76D7"/>
			<stop  offset="0.79" style="stop-color:#4F47E1"/>
			<stop  offset="1" style="stop-color:#521CEA"/>
		</linearGradient>
		<path class="st5" d="M290.6,470.5c0.6,2.6,2,4.2,4.8,4.3c4.9,0.3,5.5,4,5.5,7.5c-0.1,3.9-4,4.1-6.5,4.7c-9.9,2.3-15.8-2.3-18-13.6
			C280.8,471.4,285.7,470.4,290.6,470.5z"/>
		
			<linearGradient id="SVGID_5_" gradientUnits="userSpaceOnUse" x1="257.7506" y1="634.5093" x2="507.7206" y2="846.6393" gradientTransform="matrix(1 0 0 1 0 -208.02)">
			<stop  offset="0" style="stop-color:#48B3CA"/>
			<stop  offset="0.12" style="stop-color:#48ACCC"/>
			<stop  offset="0.31" style="stop-color:#4A97D0"/>
			<stop  offset="0.54" style="stop-color:#4C76D7"/>
			<stop  offset="0.79" style="stop-color:#4F47E1"/>
			<stop  offset="1" style="stop-color:#521CEA"/>
		</linearGradient>
		<path class="st6" d="M318.5,465.3c1.4,3.8-0.5,8.5,3.4,11.6l-3.1,5.6c-11.7,1.6-11.7,1.6-14.6-15
			C308.7,466,313.6,465.2,318.5,465.3z"/>
		
			<linearGradient id="SVGID_6_" gradientUnits="userSpaceOnUse" x1="230.6319" y1="666.4678" x2="480.6019" y2="878.5877" gradientTransform="matrix(1 0 0 1 0 -208.02)">
			<stop  offset="0" style="stop-color:#48B3CA"/>
			<stop  offset="0.12" style="stop-color:#48ACCC"/>
			<stop  offset="0.31" style="stop-color:#4A97D0"/>
			<stop  offset="0.54" style="stop-color:#4C76D7"/>
			<stop  offset="0.79" style="stop-color:#4F47E1"/>
			<stop  offset="1" style="stop-color:#521CEA"/>
		</linearGradient>
		<path class="st7" d="M268.2,474.6c-1,10.3-5.4,14.8-16.9,17.1c-6.4-12.2-6-13.1,7.4-15.6C261.9,475.5,265.1,475.1,268.2,474.6z"/>
		<path class="st0" d="M540.4,676.3c0.2,1,0.3,2,0.5,3c-15,2.9-30.2,5-45.5,6.2c-0.1-1-0.2-2.1-0.3-3.1L540.4,676.3z"/>
		<path class="st0" d="M390.9,466.9l2.5,1.8c-9.8,10.6-19,13-27.1,6C376.4,477.4,383.7,472.3,390.9,466.9z"/>
		<path class="st0" d="M459.1,453.2c7.2-7,17.4-5.1,25.8-8.5c0.1,1.7,1.3,3.1,2.9,3.5c-8.1,2.9-16.5,4.5-24.9,6.1L459.1,453.2z"/>
		<path class="st0" d="M459.1,453.2l3.8,1.2c-7.5,1.7-14.6,5.1-22.5,4.7l-1.3-1.2C445.1,453.8,451.6,451.3,459.1,453.2z"/>
		<path class="st0" d="M479.5,687.2c-7.6,0.9-15.1,1.9-22.7,2.8c-0.6,0.1-1.3-0.8-3.6-2.2l31.6-4.2
			C483.1,684.8,481.3,686,479.5,687.2z"/>
		<path class="st0" d="M487.8,448.2c-1.6-0.5-2.8-1.9-2.9-3.5c5.1-1.3,10.1-2.6,15.2-3.8c1.6-0.4,3.7-1,4.1,1.5
			c0.3,1.9-1.5,2.2-2.9,2.5C496.8,446,492.3,447.1,487.8,448.2z"/>
		<path class="st0" d="M479.5,687.2c1.8-1.2,3.5-2.4,5.3-3.6c0.7,0.2,1.4,0.5,2,0.7l2.7-1.6l5.4-0.4c0.1,1,0.2,2.1,0.3,3.1
			L479.5,687.2z"/>
		<path class="st0" d="M439,457.8l1.4,1.2c-1,2.3-3.1,2.1-5,2.4c-0.1-0.9-0.2-1.8-0.4-2.8L439,457.8z"/>
		<path class="st0" d="M489.6,682.7l-2.7,1.6C486.8,682.1,488.4,682.7,489.6,682.7z"/>
		<path class="st0" d="M163.2,451.3c2.5,7.2,5.1,14.5,7.8,21.7c1.9,9,4.7,17.8,8.3,26.3c25.8,79.4,56.1,157.2,86.5,234.9
			c3.2,8.2,6.6,16.4,9.5,24.7c0.8,2.3,4.6,6,0.5,7.4c-3.1,1-3.4-3.8-4.4-6.3c-12.4-31.7-24.8-63.5-37.2-95.2
			c-25.1-64.3-47.9-129.5-69.5-195c-0.9-4-1.9-8-2.8-12.1C162.4,455.5,161.1,453.1,163.2,451.3z"/>
		<path class="st0" d="M124.5,508.3c13.3,37.7,26.3,75.4,39.9,113c22.7,62.7,45.7,125.2,68.6,187.9c1.1,3.2,3.5,6.2,1.8,10.5
			c-4.5-1.2-4.4-5.4-5.4-8.2c-20.8-56.5-41.5-113-62.1-169.6c-15.3-42.2-30.2-84.6-45.2-126.9c-0.7-1.9-0.6-4-0.9-6.1L124.5,508.3z"
			/>
		<path class="st0" d="M155.8,434c-6.7-3.3-5.8-10.5-7.6-15.9c-13.9-41.7-30.5-82.1-55.2-118.7c-8.4-12.4-16.4-25.4-34.4-27.5
			c3.7-4.7,7.1-2.9,10.1-1.9c9.1,3,15.2,9.9,20.7,17.3c26.7,35.7,44.3,76,58.8,117.8c3.2,9.2,6.9,18.4,7.6,28.3
			C155.8,433.4,155.8,434,155.8,434z"/>
		<path class="st0" d="M100.8,449.2c-14.7-44-29.3-88-44-132l2.8-1c3.7,2.4,3.7,6.8,4.9,10.4c12.4,37.4,24.6,74.8,36.9,112.2
			c0.6,1.6,1.4,3.2,2.2,4.8c0,1.1,0,2.2,0.1,3.2L100.8,449.2z"/>
		<path class="st0" d="M317.4,801.7c13.3,4.3,26.9,5.8,42.4,4.9C350.6,813.8,326.9,810.9,317.4,801.7z"/>
		<path class="st0" d="M120.2,508.5c-4.7-14.7-9.3-29.3-13.9-44l3.3-0.5l13.9,38l1,6.3l-3.4,0.5
			C120.8,508.8,120.5,508.6,120.2,508.5z"/>
		<path class="st0" d="M161.9,457.6c-3.6-5.3-3.8-11.8-6.5-17.4c0.7-2,1.3-4,0.5-6.2l-0.1-0.7c6.1,4.5,5.2,11.8,7.4,17.9
			C161.1,453.1,162.4,455.5,161.9,457.6z"/>
		<path class="st0" d="M103.6,446.9l4.6,10.3l1.6,5.2c-0.1,0.6-0.2,1.1-0.2,1.7l-3.3,0.5l-1-3.3c-0.3-4.4-5-7.2-4.4-12L103.6,446.9z
			"/>
		<path class="st0" d="M285.9,793.8c0.8-0.2,1.1-0.3,1.3-0.2c3.9,1.7,4.9,5.3,5.9,8.9c0.1,0.2-1.6,1.4-1.9,1.2
			C287.8,801.5,285.8,797.8,285.9,793.8z"/>
		<path class="st0" d="M776,294.3c-3.4,12.5-7.5,24.9-10.8,37.5C765.7,318.5,769.9,306.1,776,294.3z"/>
		<path class="st0" d="M618.5,245.4c-6.6,6.3-14.1,8.8-22.8,5.5C603.3,249.1,611.3,249.1,618.5,245.4z"/>
		<path class="st0" d="M623.8,239.7c2.2-2.1,2.8-5.7,6.9-6.8c-0.6,4-2.6,6.2-5.1,8.1L623.8,239.7z"/>
		<path class="st0" d="M484.5,238c-3.8-4.8-3-8.8-5.1-11.8C483.9,228.2,483.6,232.1,484.5,238z"/>
		<path class="st0" d="M472.7,222l-11.2-0.3c5.3,0.8,8.4-3.3,12.3-1.2L472.7,222z"/>
		<path class="st0" d="M625.7,241c-1.3,1.9-2.5,3.9-5.6,3.8c0-2.8,2.4-3.6,3.8-5.1L625.7,241z"/>
		<path class="st0" d="M473.8,220.5c1.1,0.7,2.1,1.4,3.2,2.1l-1,1.5l-3.3-2.1L473.8,220.5z"/>
		<path class="st0" d="M477,222.6c0.5,0.5,1.6,1.3,1.5,1.5c-0.7,1.7-1.7,0.6-2.5,0L477,222.6z"/>
	</g>
</g>
</svg>
