<svg xmlns="http://www.w3.org/2000/svg" xmlns:xlink="http://www.w3.org/1999/xlink" viewBox="0 0 882.47 858.7"><defs><style>.cls-1{fill:#1f1e17;}.cls-2{fill:#050505;}.cls-3{fill:#5a5959;}.cls-4{fill:#474747;}.cls-5{fill:#232323;}.cls-6{fill:url(#linear-gradient);}.cls-7{fill:url(#linear-gradient-2);}.cls-8{fill:url(#linear-gradient-3);}.cls-9{fill:url(#linear-gradient-4);}.cls-10{fill:url(#linear-gradient-5);}.cls-11{fill:url(#linear-gradient-6);}.cls-12{fill:#252007;}</style><linearGradient id="linear-gradient" x1="174.01" y1="583.63" x2="420.02" y2="336.74" gradientTransform="matrix(1, 0, 0, -1, 0, 871.98)" gradientUnits="userSpaceOnUse"><stop offset="0" stop-color="#48b3ca"/><stop offset="0.12" stop-color="#48accc"/><stop offset="0.31" stop-color="#4a97d0"/><stop offset="0.54" stop-color="#4c76d7"/><stop offset="0.79" stop-color="#4f47e1"/><stop offset="1" stop-color="#521cea"/></linearGradient><linearGradient id="linear-gradient-2" x1="299.96" y1="240.38" x2="588.22" y2="53.34" xlink:href="#linear-gradient"/><linearGradient id="linear-gradient-3" x1="236.79" y1="426.49" x2="507.88" y2="172.12" xlink:href="#linear-gradient"/><linearGradient id="linear-gradient-4" x1="244.8" y1="430.23" x2="494.78" y2="218.11" xlink:href="#linear-gradient"/><linearGradient id="linear-gradient-5" x1="257.75" y1="445.49" x2="507.72" y2="233.36" xlink:href="#linear-gradient"/><linearGradient id="linear-gradient-6" x1="230.63" y1="413.53" x2="480.6" y2="201.41" xlink:href="#linear-gradient"/></defs><g id="Layer_2" data-name="Layer 2"><g id="Layer_1-2" data-name="Layer 1"><path class="cls-1" d="M580.45,444.47q51.12,107.89,102.24,215.77c8.42,17.75,19.57,34.2,25.49,53.15,5,16.11,1,24.11-15.26,28.2-7.95,2-12.9,4.75-15.58,13.43-3.61,11.72-14.07,17.8-25,22-30.26,11.45-61.41,20.19-92.5,29-50.69,14.3-101.75,27.12-154.37,32.24-27.08,2.63-54.05,2-80.65-4.28-6.88-1.62-13-1.51-17.33,4.73C293.64,858.47,272.88,861,250,852.7a46.4,46.4,0,0,1-4.89-2c-6.48-3.23-11.69-7.16-17.83,2.51-5.31,8.36-18,6.65-26.47-1.57-7.05-6.86-11.55-15.52-16-24.17-19.66-38.58-35.23-78.81-48.22-120.08C116.29,642.91,98.36,577.7,77.11,513.5c-1-3.06-2.17-6.08-3.26-9.12-.33-1.24-.67-2.48-1-3.73l-1.77-4.82c-1-7.57-4-14.55-6.66-21.62L8.3,296.83C6.53,291.22,5.09,285.49,3,280c-9.38-24.3,4-50.82,32.36-59.65-7.81-31.07,1.29-55.14,25.58-67.69,35.36-18.27,78.29,8.42,77,48.15-.2,6,1.47,7.27,6.68,5.88a25.39,25.39,0,0,1,2.62-.36c6.4-.91,14.44.18,18.74-3.32s-.66-11.25-.61-17.27c.22-26.27,22-50.13,48.22-52.17,28.64-2.23,53.93,17.78,57.68,45.69.43,3.18.5,6.41.8,10.49,11-1.46,22-3.12,33.1-4.32,6.6-.71,3.35-4.92,2.92-7.69-3.8-24.39,6.64-46.27,27.43-57.07,28.71-14.9,63.27-1.5,74.46,29.3,1.92,5.29,2.85,6.15,8.06,3.22,7.63-4.29,16.05-7.2,24.15-10.64,24.1-10.25,44.37-26.31,64.57-42.5,9.86-7.9,19.62-15.94,29.74-23.48s21.7-10.62,34.15-8.32c4.41.82,6.87-.43,9.91-3.21,15.18-13.83,32-20.94,52.23-11,2.34,1.14,4.34.78,6.58-.54,16.27-9.61,32-6.81,47.42,2.25l-4.63,1.15c-4.2-1.24-8.34-2.73-12.61-3.68-9.49-2.12-18.67-1.3-27.31,3.57-2.39,1.35-4.89,2.43-2.87,5.91.65,1.13,1.88,2.64-.19,3.56-1.77.79-2.73-.66-3.36-1.94-5.36-10.76-15.38-11-25.07-10.21-12.24,1-21.35,8.38-29.87,16.5,2.61,3.49,8,4.12,6.9,9.74C567.31,68.14,553.4,69,534.18,83.46c-4.46,3.35-8.81,6.86-13.09,10.43-29.39,24.52-59.3,48.15-96.39,60.42a26.48,26.48,0,0,0-12.25,8.36c-2.95,3.6-5.31,7.5-4.12,13.15,2.78-1.09,4.93-1.87,7-2.76q54.69-23.22,109.39-46.44,53.88-22.78,107.85-45.38l.39,3.28a7,7,0,0,1-1.36,1.1C560.87,116.46,489.12,145,418.92,177.11c-15.55,7.12-31.7,12.95-48.28,19.66,3.17,2.72,6.36,4.17,7.34,6.54,3.49,8.47,8.4,5.7,14.36,3.15C446.87,183.11,501.5,160,556.09,136.8q80.65-34.31,161.3-68.66c3.76-1.59,7.3-2.77,5.18-7.94l3.25-.43c10.28,22.16,20,44.57,28.64,67.42l-3.27.46c-1.15-2.37-2.74-4.63-3.37-7.13-2.15-8.63-5.89-9.39-14.17-5.81-66,28.53-132.22,56.44-198.37,84.56-3.53,1.5-7,3.16-11.09,5,7,4.65,13,8.28,18.61,12.54,4,3.06,7.23,3,11.85,1,31.48-13.69,63.1-27.05,94.73-40.38,31.88-13.44,63.82-26.72,95.74-40.07l3.14,2c-35.29,15.18-70.53,30.5-105.93,45.43-6.82,2.88-10.16,5.91-10.75,14.39-2.57,36.71-26.69,46-55.29,38.81a97.19,97.19,0,0,1-34.66-16.88c-14.35-10.76-29.95-18.55-48-20.62s-35.33-.32-50.44,10.61c-10.8,7.81-9.87,14.84,2.41,19.42,13.47,5,27.16,9.48,40.84,13.93,18.22,5.93,34.2,15.25,47.59,29.17,10.3,10.71,22.84,18.42,36.36,24.52,26.15,11.8,53.93,17.93,82.23,16.61C697.2,312.7,734.45,326.7,765.82,358c14.93,14.87,27.72,15.69,44.57,3,38-28.52,55.72-66.26,51.71-114-1.54-18.33-8.21-31.71-26.52-39.66-29.49-12.8-49.64-36.82-68-62.28l1.81-2.68c10.81,12,20.35,25,32.09,36.16,9.87,9.35,20,18.9,32.84,23.4,26.83,9.4,32.69,30.52,32.94,55.1.45,44.29-17.93,79.44-52.78,106.26-19.7,15.16-34.5,14.4-52.26-2.86C733.42,332.5,700,318.17,659,319.29c-40.82,1.12-80.11-7-114.56-31.11-8-5.61-14.66-12.68-21.82-19.22-9.46-8.64-20.61-14.14-34.28-19.12,22.42,52.91,49,101.91,72.06,152.51l-4.29.45c-23.44-48-47.38-95.78-69-144.64-2.24-5.06-3.93-5.75-8.81-3.59-22.81,10.1-45.76,19.87-68.71,29.66-10,4.26-20,8.58-31.18,8.73q-46.69.59-93.38,1.22c-5.31.07-10.94.45-13.45-5.83s1.54-9.88,5.36-13.71q30.79-30.93,61.48-62c7.51-7.63,15.72-14,25.78-18,8.53-3.38,16.85-7.3,27.59-12a94.4,94.4,0,0,0-25-.19c-29.77,3.71-59.5,7.68-89.24,11.6-7,.93-10.26,5.77-8.09,12.63,1.26,4,2.65,7.84,2,12-.75,5.11-3.6,8.1-9,7.27-8.65-1.32-15.26-16.14-10.53-23.49,2.08-3.23,4.86-4.95,9-3.55,1.36.46,2.75,2.58,4.41.65a3,3,0,0,0,.73-2.45c-1-2.26-3-1.14-4.56-.94q-60.36,7.95-120.7,16c-6.06.8-7,3.61-3.25,8.17a21.65,21.65,0,0,1,4.64,13.94c0,3.44-1,6.49-4.21,8.18-3.59,1.92-6.82.54-9.79-1.71-10.54-8-9.24-21.26,3-26.88-20.3.4-39.71,5.49-59.57,6.25-4.35-.58-6.92.69-5.9,5.68-5.86-.06-11.79.42-17.58-.27C20.14,222.22-4,249.87,7.57,281.08,16.47,305,23.23,329.71,31,354q19.23,60,38.56,119.87l10.08,31.3c.33,2,0,4.19,2.09,5.47l-.17.18c.68,2.85,1.16,5.77,2.08,8.55C102.76,577.16,119,635.79,136.84,693.9,151.66,742,169.34,789,193,833.51c3.74,7,7.84,13.91,14.92,18.18,7.4,4.45,18,2,19.09-5.39,1.31-8.95,4.71-7.23,10-4.09a66.71,66.71,0,0,0,8,3.74c27.68,11.95,39.32,9.8,60.24-11.52,5-5.13,10.55-6.82,17.54-5.33,7.75,1.65,15.57,3.13,23.43,4.07,40.51,4.86,80.31-.54,119.9-8.67,51.87-10.65,102.71-25.14,153.19-41,13.42-4.2,27.35-7.08,39.54-14.59,8.72-5.38,15.58-12.17,17.22-23-1-.31-1.55-.67-2-.59-48.44,8-96.86,16-145.32,23.93a1547,1547,0,0,1-177.09,18.24c-17.42.81-31.75-5.17-39.58-22.25-4.52-9.87-7.41-20.29-11-30.48-20.37-57.61-41.2-115.05-61.82-172.57-7.89-22-15.63-44.08-23.45-66.13l3.31-.43c7.49,20.27,15.07,40.51,22.46,60.82,18.85,51.86,37.3,103.86,56.59,155.56,6.52,17.47,8.83,36.31,18.39,52.81,5.93,10.23,13.7,16.32,25.5,17.83,13.56,1.73,27,0,40.41-1,53.61-4.2,107.1-9.46,160.14-18.73,41.1-7.18,82.34-13.53,123.49-20.4,9.56-1.59,19.12-3.38,28.5-5.81s12.15-7.43,10.72-17c-1.1-7.38-4-14.16-7.41-20.65-22.14-41.78-41.59-84.87-61.89-127.53-20-42.13-39.69-84.46-59.5-126.7C577.78,444.76,579.11,444.61,580.45,444.47ZM441.37,234.61c-13.21-11.45-12.68-19.1,1.46-28.61a52.16,52.16,0,0,1,8.5-4.62c19.25-8.24,38.94-8.19,58.57-2a21.8,21.8,0,0,0,16.78-.86c18.25-8.12,36.74-15.67,55.12-23.49Q658,142.64,734.29,110.26c5.47-2.31,8.12-4.15,4.55-10.63a160.78,160.78,0,0,1-10.36-24.29c-1.91-5.42-4.37-5.68-9.13-3.65Q553.6,142.42,387.7,212.75c-6.49,2.75-7.73,7.52-8.5,13-.81,5.65,2.29,9.48,7.28,11.86,5.42,2.58,10.47,5.55,12,12,.8,3.25,2.68,2.18,4.66,1.33C415.8,245.5,428.42,240.13,441.37,234.61Zm-39,47.62c-10.1-5.8-12.51-13.56-8.58-23.55,2.83-7.19.44-12.37-6.31-16.1C374.16,235.2,373,232.52,376.92,218c1.54-5.73.9-10.58-4-14.08-4.65-3.3-9.39-5.36-15.25-1.58a75.4,75.4,0,0,0-13.2,10.14q-19.19,19.43-38.36,38.87c-13.75,14-13.54,13.89-5.94,32.25,2,4.93,4.64,6.33,9.79,6.17,21.1-.63,42.21-1.18,63.31-1C383.17,288.85,392.43,287.51,402.38,282.23Zm-315.32-68c13.4-1.78,26.79-3.69,40.22-5.25,4.18-.49,6.08-1.83,6.34-6.39a49.32,49.32,0,0,0-26.88-46.12c-17.07-8.54-38.53-6-52.9,6.2a49,49,0,0,0-15.39,51c1.56,5.3,3.8,6.82,9.31,5.9C60.79,217.46,74,216,87.06,214.27Zm266.63-94.51a48.7,48.7,0,0,0-41.64,56.42c1,6.24,3.17,8.1,9.76,7.2,25.24-3.46,50.41-8.84,76.13-4.79,1.74.27,4.71.47,4.64-1.1-.36-8.45,7.1-15.26,4-24.44C399.15,130.94,376.9,116.61,353.69,119.76Zm-134.26,77c14-1.86,28-3.79,42-5.52,3.64-.45,6-1.2,5.68-5.75-1.23-19.6-10.12-34.38-27.92-42.75s-35.12-6.3-50.58,5.76-20.78,28.59-17.75,47.87c.76,4.82,2.8,6.82,8.32,5.89C192.53,200,206,198.56,219.43,196.78Zm264.53,51c-11.59-3.67-21.65-6.66-31.56-10.09-3.43-1.18-6.31-.58-9.32.7q-20.25,8.64-40.46,17.35c-7.25,3.14-7.81,9.45-5.41,15.37s7.47,10.33,14.63,7.35C435.39,268.71,458.78,258.57,484,247.82ZM627.42,191.7l-74.71,31.4A95.75,95.75,0,0,0,577.07,233C605.52,239.78,628.74,229.48,627.42,191.7Z"/><path class="cls-2" d="M633,84.56l-.39-3.28C647.76,74.7,663,68.21,678.06,61.41c1.57-.71,6.41.25,4.06-4.48l4.63-1.15c3.4.67,6.26-.81,9.26-2.1,38.56-16.52,77-33.18,115.75-49.34C834.85-5.3,858.82,1.52,873,20.86a49.76,49.76,0,0,1-2.26,61.24,51.69,51.69,0,0,1-19.71,14.46q-38.79,16.68-77.7,33.06c-9.79,4.12-9.87,4-4,12.82l-1.81,2.68c-4.66-7.91-10.68-11.17-19.29-5.68l-3.14-2c3-2.67,10.36-2.56,6.07-9.74l3.27-.46c2.85,6.74,6.93,2.47,10.7,1.22,4.36-1.44,2.83-4,1.6-6.88C756.19,97,745.57,72.48,735.38,47.76c-2.16-5.24-4.36-4.56-8.59-2.87-4.64,1.85-6,3.9-3.51,8.39a46.25,46.25,0,0,1,2.5,6.54l-3.25.43c-5.65-11.18-5.6-11.08-17.67-6Q668.95,69.5,633,84.56Zm160.94,29c-.25-.75-.32-1-.44-1.31q-16.53-38.82-33.05-77.65c-2-4.73-4.75-1.47-7.17-.76-3.3,1-3.57,2.8-2.11,6,3.93,8.51,7.41,17.23,11.07,25.86Q772.67,90.33,783.13,115c1,2.38,1.75,5.68,5.39,3.48C790.62,117.23,795,117.74,793.91,113.54Z"/><path class="cls-1" d="M580.45,444.47l-4,.44a131.69,131.69,0,0,1-11.08-23.58l3.29-.29C574,428.13,576.61,436.61,580.45,444.47Z"/><path class="cls-1" d="M568.65,421l-3.29.29-1.06-1.62c1.29-3.81-4.42-3.34-4-6.6l-4.17-10.27,4.29-.45A58.13,58.13,0,0,1,568.65,421Z"/><path class="cls-3" d="M687.35,346.41l.18-.32s-.1.28-.09.27Z"/><path class="cls-4" d="M762.37,468.34l.1-.35a2.09,2.09,0,0,0,0,.25Z"/><path class="cls-5" d="M199.54,452c-15.1-40.76-30-81.6-45.39-122.25a557.54,557.54,0,0,0-24-53.92c-13.62-27-33-46.28-64.5-50-1-5,1.54-6.26,5.9-5.68-.52,1-2.63,2.46.27,2.89,34.79,5.2,52.21,29.91,66,58.67,22.11,46.12,38.18,94.62,55.68,142.55,3.31,9,7.58,17.81,9.18,27.45Q201.1,451.88,199.54,452Z"/><path class="cls-1" d="M199.54,452l3.14-.32c6.8,14.19,11.44,29.18,16.38,44.07l-3.31.43a1.35,1.35,0,0,1-.94-.19c-4.64-13.68-9-27.45-15-40.61C199.69,454.29,199.61,453.17,199.54,452Z"/><path class="cls-1" d="M79.68,505.25c2.08,1.29,2.22,3.33,2.09,5.47C79.65,509.44,80,507.21,79.68,505.25Z"/><path class="cls-6" d="M269.55,320.64c7.78,18.77,15,36.32,22.36,53.81,1.72,4.07.48,6.1-3.62,6.85-25.73,4.71-51.47,9.38-77.18,14.18-3.57.67-5.2-.5-6.54-3.81q-13.92-34.29-28.25-68.41c-1.89-4.49-.19-5.71,3.74-6.45q38.55-7.28,77.08-14.7c2.19-.42,4.5-.71,5.26,1.68,1.44,4.51,6.08,8.4,3,13.9-5.23,9.21-10.58,18.34-15.56,27.68-2,3.66-3.7,3.31-6.78,1.48A75.72,75.72,0,0,0,223.46,339c-1.4-.37-3.09-.77-3.7,1-.55,1.66.57,2.88,2.1,3.29A87,87,0,0,1,246,354c3.42,2.18,4.6-.57,5.92-2.95,4.15-7.45,8.3-14.91,12.52-22.32C265.81,326.29,267.42,324,269.55,320.64Z"/><path class="cls-7" d="M357.66,725.27c-11.75,2.31-11.71,2.29-19.72-17.31-7.09-17.37-14-34.8-21.57-52-2.56-5.84-1.32-7.35,4.64-8.44,24.51-4.46,48.94-9.36,73.38-14.23,4.22-.84,7-.62,8.95,4.15,9.05,22.58,18.28,45.1,27.85,67.46,2.39,5.59,0,6.46-4.49,7.29C406.8,715.87,386.92,719.71,357.66,725.27Zm22.82-37.67c-8.78-7.22-16.85-13.91-25-20.51-1.46-1.18-3.2-3.51-5.11-1-1.74,2.25.51,3.71,2,5,8.35,6.93,16.81,13.74,25.08,20.76,3.86,3.28,6.11,2.35,7.71-2.1,3.68-10.2,7.44-20.36,11.12-30.56.74-2,2.64-4.8-.73-5.82-2.44-.73-3.1,2.11-3.81,4C388.11,667.08,384.48,676.88,380.48,687.6Z"/><path class="cls-5" d="M330,330.38c18.13,5.16,33-1.42,48.78-7.56-4.08-4.52-11.75-7.23-5.54-14.38,4.1-4.72,17.69-9.08,21-6.27,6.84,5.84-1.48,10.07-2.43,15.59,13.51.18,25.37-4.73,37.31-9.34,10.12-3.91,19.95-8.62,30.67-10.85,1.37-.29,2.89-1.33,3.9.36s-.44,2.83-1.78,3.14c-21.45,5.05-40.36,18.11-62.55,20.46-8.87.94-16.67,3-24.56,7.36a61.09,61.09,0,0,1-40.9,6.54c-5.16-.9-9.4-.41-14,2.55-6.44,4.15-13.71,6.73-21.7,5.56-1.34-.2-3.2,0-3.18-2.07s1.79-2.14,3.19-2a26.13,26.13,0,0,0,12.09-1.72c4.92-2,12.36-1.91,4.86-10.47-4-4.58-1.05-10.39,3.27-14,4.85-4.08,10-8.94,17.25-5.63,3,1.38,3.62,4.12,2.68,7.48C336.81,320.52,334,325.21,330,330.38Zm4.41-18.56c-.14-.77-1.67-1.25-4-.91-5.91.85-13.62,8.12-12.73,12.52a6.72,6.72,0,0,0,6.72,5.72C327.13,329.18,334.79,317.1,334.38,311.82Zm53.09-6.27c-2.19.88-4.41,1.65-6.51,2.66-2.34,1.12-5.14,2.06-5.66,5-.37,2.08,1.64,2.9,3.28,3.49,3.18,1.14,6.33,1.62,8.78-1.52,1.26-1.62,2.52-3.25,3.69-4.93.86-1.23,1.7-2.92.54-4C390.76,305.48,389,305.76,387.47,305.55Z"/><path class="cls-5" d="M536.36,469.87c-12.31,5.93-24.82,11.27-37.07,17.19a104.5,104.5,0,0,1-38.88,10.58c-9.19.6-17.74,4.23-26.69,5.6-10,1.53-19.56,1.41-28.75,8-7.1,5.11-17.05,2.79-25.32-1.42-1.51-.77-3.39-1.52-2-4.43,2.85-.69,5.15,1.62,7.75,2.4,8.33,2.51,16.22,2.29,23.5-3,3.33-2.42,5.86-5,2.32-9.24a5.62,5.62,0,0,1-1.07-3.28c-.06-4.12.87-8.23,5.85-8.16,4.68.07,5.68,4.12,4.66,7.77-2,7.05,1.25,9.76,7.31,8.07,25.06-7,52.07-6.07,75.64-19.26C513.66,475.11,524.31,470.42,536.36,469.87Z"/><path class="cls-1" d="M458.28,635.11c1.76-4.75,5.38-6.2,9.61-4.12,4.07,2,4.74,6.45,2.74,9.93-3.58,6.25-.54,6.44,4.51,6.47,15.33.08,28.36-4.94,38.54-17.08,2.24,11,6,14,17.9,14.57,16.44.83,32-3.13,47.23-8.78,7.41-2.75,14.91-5.25,22.43-7.71,2.6-.85,5.39-1.7,10.49,1.64-13.8,2.74-24.69,7.11-35.65,11.27a114.59,114.59,0,0,1-45.59,7.6c-5.07-.2-10.47-.87-14.06-4.32-4.48-4.31-7.53-4-12.51-.68a47.33,47.33,0,0,1-33.67,7.23,13.48,13.48,0,0,0-11.18,2.72c-7.62,5.58-13.12,5.24-19.7-.31,5.12-1.91,10.23,1.49,15.29-1.44,4.77-2.76,3.69-4.78,1.25-7.84,5.32.15,11.92,1.18,11.26-6.92C466.65,630.72,461.11,636.76,458.28,635.11Z"/><path class="cls-5" d="M314.79,358.92c2.51-3.29,4.17-2.25,5.87-2.16,3.49.2,7.09-.63,10.49-.07,9.41,1.54,11.88-13.61,21.52-9.28,9.16,4.11,17.81,1.18,26.57.14a192.72,192.72,0,0,0,25.88-5.17c12.76-3.33,25.33-7.34,38-10.91,3.26-.92,6.38-3.16,10.05-1.73.81,3.18-1.6,3.24-3.49,3.9-27,9.37-54.41,16.8-82.89,19.83-4.91.52-10,1.58-14.6-1.38-3.85-2.49-5.16,1.42-7.23,2.88C335.83,361.46,326.28,363.42,314.79,358.92Z"/><path class="cls-5" d="M540.43,676.32l74.84-12.74.57,3.32c-24.68,5.75-49.74,9.49-75,12.43C540.74,678.33,540.58,677.33,540.43,676.32Z"/><path class="cls-2" d="M390.85,466.9c2.48-4.18,7.31-6.89,7.5-12.55.07-2,1.64-3.06,3.81-2.15,1.19.5,2.54.54,2.17,2.75-.82,4.8,2.48,5.1,6,4.91,8.19-.44,16.38-.82,24.57-1.23.12.92.24,1.84.37,2.76-10.67,1.32-21.24,5.27-32.13,1.6-5.59-1.88-5.86,5-9.79,5.74Z"/><path class="cls-8" d="M268.23,474.63a13.49,13.49,0,0,1,8-1.27c2.2,11.27,8.13,15.93,18,13.6,2.52-.59,6.43-.8,6.51-4.66.08-3.54-.57-7.22-5.45-7.5-2.72-.16-4.22-1.75-4.78-4.33l13.52-2.85c2.92,16.58,2.92,16.58,14.64,15C314.46,492.83,310,503,306,513.36c-1.52,3.89-3.29,4-6.49,2-4-2.47-8.16-4.64-12.32-6.8-1.93-1-4.4-3.28-6-.26-1.26,2.34,1.44,3.44,3.18,4.4,5.64,3.12,11.37,6.1,17,9.27,3.69,2.09,6,1,7.6-2.67,5.35-12.38,10.76-24.73,16-37.13,1.22-2.87,2.29-6.05-3.08-5.2-3.85-3.1-2-7.83-3.36-11.65,2-.58,4-1.06,5.88-1.75,6.08-2.19,9.08-.49,11.59,6,8.26,21.32,17.26,42.35,26.4,63.31,2.64,6.06,1.31,8-5,9.12-24.55,4.36-49,9.1-73.52,13.84-3.88.75-6.48.65-8.22-3.8-7.92-20.17-16.17-40.2-24.31-60.29C262.85,489.39,267.2,485,268.23,474.63Z"/><path class="cls-9" d="M290.57,470.46c.56,2.58,2.05,4.17,4.78,4.33,4.88.28,5.53,4,5.45,7.5-.08,3.87-4,4.07-6.51,4.66-9.88,2.33-15.8-2.33-18-13.6A36.18,36.18,0,0,1,290.57,470.46Z"/><path class="cls-10" d="M318.51,465.34c1.35,3.82-.49,8.55,3.36,11.65l-3.15,5.58c-11.71,1.62-11.71,1.62-14.64-15A41.41,41.41,0,0,1,318.51,465.34Z"/><path class="cls-11" d="M268.23,474.63c-1,10.34-5.38,14.76-16.87,17.13-6.36-12.2-6-13.09,7.37-15.61C261.88,475.55,265.06,475.13,268.23,474.63Z"/><path class="cls-2" d="M540.43,676.32c.15,1,.31,2,.46,3a405.61,405.61,0,0,1-45.52,6.15c-.11-1-.21-2.09-.32-3.13Z"/><path class="cls-5" d="M390.85,466.9l2.53,1.82c-9.78,10.61-19,13-27.11,6C376.4,477.43,383.66,472.25,390.85,466.9Z"/><path class="cls-2" d="M459.06,453.16c7.24-7,17.37-5.12,25.8-8.46a4,4,0,0,0,2.91,3.54c-8.09,2.91-16.5,4.54-24.92,6.1Z"/><path class="cls-2" d="M459.06,453.16l3.79,1.17c-7.48,1.68-14.6,5.08-22.51,4.68L439,457.84C445.11,453.84,451.58,451.32,459.06,453.16Z"/><path class="cls-2" d="M479.55,687.22c-7.56.94-15.11,1.92-22.68,2.77-.62.07-1.33-.77-3.65-2.2l31.62-4.19C483.06,684.81,481.3,686,479.55,687.22Z"/><path class="cls-2" d="M487.77,448.24a4,4,0,0,1-2.91-3.54c5.07-1.28,10.14-2.61,15.23-3.83,1.64-.39,3.73-1,4.14,1.53.31,1.89-1.51,2.16-2.89,2.51C496.82,446,492.29,447.13,487.77,448.24Z"/><path class="cls-5" d="M479.55,687.22c1.75-1.21,3.5-2.41,5.3-3.63.71.24,1.38.48,2,.73l2.74-1.57,5.41-.4c.11,1,.21,2.09.32,3.13Z"/><path class="cls-2" d="M439,457.84l1.35,1.17c-1,2.29-3.13,2.08-5,2.36-.12-.92-.24-1.84-.37-2.76Z"/><path class="cls-2" d="M489.64,682.74l-2.74,1.57C486.84,682.1,488.39,682.69,489.64,682.74Z"/><path class="cls-12" d="M163.18,451.31Q167,462.17,170.93,473a141.32,141.32,0,0,0,8.32,26.33c25.78,79.42,56.1,157.17,86.48,234.9,3.21,8.21,6.61,16.36,9.52,24.67.82,2.34,4.64,6,.51,7.41-3.07,1-3.39-3.84-4.37-6.34q-18.67-47.6-37.21-95.24c-25.06-64.35-47.92-129.48-69.53-195q-1.4-6-2.8-12.09C162.42,455.53,161.11,453.06,163.18,451.31Z"/><path class="cls-12" d="M124.5,508.31c13.28,37.66,26.31,75.42,39.89,113C187.06,684,210.1,746.53,232.94,809.17c1.15,3.15,3.5,6.15,1.84,10.47-4.47-1.16-4.39-5.39-5.43-8.19q-31.24-84.74-62.13-169.61C151.92,599.62,137,557.25,122,514.93c-.67-1.89-.6-4-.87-6.08Z"/><path class="cls-12" d="M155.82,434.05c-6.68-3.27-5.79-10.51-7.58-15.91-13.86-41.71-30.5-82.06-55.22-118.68-8.4-12.44-16.45-25.35-34.4-27.54,3.71-4.72,7.14-2.86,10.08-1.89,9.1,3,15.2,9.92,20.67,17.25,26.69,35.71,44.34,76,58.77,117.81,3.18,9.23,6.91,18.38,7.64,28.3C155.76,433.37,155.82,434.05,155.82,434.05Z"/><path class="cls-12" d="M100.81,449.21q-22-66-44-132l2.77-1c3.65,2.37,3.7,6.76,4.89,10.35Q83,382.66,101.33,438.79a49.21,49.21,0,0,0,2.17,4.81c0,1.08,0,2.16.07,3.24Z"/><path class="cls-12" d="M317.35,801.72c13.29,4.27,26.91,5.81,42.37,4.94C350.56,813.75,326.93,810.86,317.35,801.72Z"/><path class="cls-1" d="M120.17,508.46q-7-22-13.93-44l3.33-.46,13.91,38,1,6.25-3.36.53A2,2,0,0,1,120.17,508.46Z"/><path class="cls-1" d="M161.85,457.6c-3.55-5.27-3.84-11.77-6.53-17.37.7-2,1.31-4,.51-6.19l-.06-.67c6.06,4.5,5.24,11.84,7.41,17.93C161.11,453.06,162.42,455.53,161.85,457.6Z"/><path class="cls-1" d="M103.57,446.85l4.59,10.29,1.62,5.22a15.57,15.57,0,0,0-.22,1.67l-3.33.46-1-3.32c-.26-4.43-5-7.24-4.42-12Z"/><path class="cls-12" d="M285.89,793.78c.75-.15,1.09-.34,1.31-.24,3.85,1.68,4.92,5.28,5.88,8.86.06.23-1.62,1.36-1.89,1.18A11.16,11.16,0,0,1,285.89,793.78Z"/><path class="cls-3" d="M776,294.3c-3.42,12.52-7.49,24.89-10.8,37.5C765.74,318.45,769.87,306.1,776,294.3Z"/><path class="cls-1" d="M618.54,245.41c-6.64,6.25-14.14,8.75-22.84,5.5C603.31,249.07,611.35,249.14,618.54,245.41Z"/><path class="cls-1" d="M623.81,239.66c2.16-2.07,2.77-5.74,6.94-6.82-.58,4-2.59,6.2-5.09,8.13Z"/><path class="cls-3" d="M484.49,238c-3.77-4.8-3-8.81-5.12-11.75C483.92,228.23,483.61,232.08,484.49,238Z"/><path class="cls-3" d="M472.73,222l-11.22-.32c5.34.81,8.39-3.27,12.29-1.23Z"/><path class="cls-1" d="M625.66,241c-1.29,1.87-2.45,3.92-5.64,3.81,0-2.79,2.39-3.64,3.8-5.12Z"/><path class="cls-3" d="M473.8,220.48c1.06.71,2.12,1.42,3.19,2.12l-1,1.51L472.73,222Z"/><path class="cls-3" d="M477,222.6c.55.51,1.65,1.25,1.55,1.48-.72,1.69-1.66.56-2.53,0Z"/></g></g></svg>