<svg xmlns="http://www.w3.org/2000/svg" xmlns:xlink="http://www.w3.org/1999/xlink" viewBox="0 0 902.02 787.28"><defs><style>.cls-1{fill:url(#linear-gradient);}.cls-2{fill:url(#linear-gradient-2);}</style><linearGradient id="linear-gradient" x1="166.23" y1="628.41" x2="935.47" y2="64.61" gradientTransform="matrix(1, 0, 0, -1, 0, 796)" gradientUnits="userSpaceOnUse"><stop offset="0" stop-color="#f9bb3d"/><stop offset="1" stop-color="#f99b3d"/></linearGradient><linearGradient id="linear-gradient-2" x1="13.72" y1="809.74" x2="415.14" y2="379.72" gradientTransform="matrix(1, 0, 0, -1, 0, 796)" gradientUnits="userSpaceOnUse"><stop offset="0" stop-color="#fc9e97"/><stop offset="1" stop-color="salmon"/></linearGradient></defs><g id="Layer_2" data-name="Layer 2"><g id="Layer_1-2" data-name="Layer 1"><path class="cls-1" d="M347,144.23c-45.13,77.38-190.76,100.91-241.47,140.6C59.08,321.17,34.37,405.2,36.87,472.16S90.24,605.75,157,611.34c29.06,2.42,58.13-6.16,87.22-4.18,93.12,6.36,145,110.8,226.86,155.59,94.37,51.62,214.63,15.11,301.93-47.7,55.53-39.94,105.5-92.94,123.18-159S891,410,830.75,377.49c-54.25-29.24-136.88-24.95-158-82.84-14.79-40.48,14-82.79,20.52-125.39,10.14-66.75-40.64-133.19-105-153.59S465-8.26,417.53,39.81C395.41,62.24,362.84,117,347,144.23Z"/><path class="cls-2" d="M218.92,100.72c-31.84,54.6-134.6,71.2-170.38,99.21C15.79,225.57-1.64,284.86.12,332.11s37.66,94.26,84.78,98.2c20.51,1.71,41-4.35,61.54-2.95,65.7,4.48,102.3,78.18,160.07,109.78,66.58,36.43,151.44,10.66,213-33.66,39.18-28.18,74.44-65.57,86.92-112.19s-3.71-103.08-46.19-126C522,244.68,463.7,247.7,448.8,206.86c-10.43-28.56,9.91-58.42,14.48-88.47,7.15-47.1-28.67-94-74.08-108.37s-87-16.88-120.48,17C253.1,42.87,230.12,81.52,218.92,100.72Z"/></g></g></svg>