<svg xmlns="http://www.w3.org/2000/svg" xmlns:xlink="http://www.w3.org/1999/xlink" viewBox="0 0 952.64 825.34"><defs><style>.cls-1{fill:url(#linear-gradient);}</style><linearGradient id="linear-gradient" x1="677.6" y1="-57.43" x2="-129.37" y2="2166.24" gradientTransform="matrix(1, 0, 0, -1, 0, 801.37)" gradientUnits="userSpaceOnUse"><stop offset="0" stop-color="#f9bb3d"/><stop offset="1" stop-color="#f99b3d"/></linearGradient></defs><g id="Layer_2" data-name="Layer 2"><g id="Layer_1-2" data-name="Layer 1"><path class="cls-1" d="M669.53,641.61c35-90,188.52-141.63,236.33-192.86,43.76-46.9,55.46-140.2,40.75-210.46S864.87,107,791.55,113.38c-31.91,2.78-61.86,17.19-93.72,20.44C595.84,144.22,521,43.44,424.25,11.19,312.8-26,189.09,34.67,105.79,117.05,52.81,169.44,8.19,234.59.87,307.62S32.74,461,103.76,484.16c64,20.92,152.72,1.2,186,58.46,23.27,40-.37,90,.24,136.2,1,72.36,67.88,133.2,141.24,142.92s137.86,2.61,180.6-56.87C631.75,737.1,657.22,673.27,669.53,641.61Z"/></g></g></svg>